<svg width="213.000000" height="32.000000" viewBox="0 0 213 32" fill="none" xmlns="http://www.w3.org/2000/svg" xmlns:xlink="http://www.w3.org/1999/xlink">
	<desc>
			Created with Pixso.
	</desc>
	<defs/>
	<path id="Vector" d="M18.02 27.65L17.53 27.65C17.53 27.65 17.53 27.64 17.53 27.64L17.51 27.58C17.51 27.54 17.5 27.5 17.49 27.46C17.48 27.44 17.48 27.43 17.47 27.41C17.46 27.36 17.45 27.31 17.43 27.26L17.43 27.24C17.42 27.19 17.4 27.13 17.38 27.08L17.37 27.02C17.36 26.99 17.34 26.95 17.33 26.91C17.33 26.89 17.32 26.87 17.31 26.85C17.3 26.81 17.29 26.78 17.28 26.74C17.27 26.72 17.26 26.71 17.26 26.69C17.24 26.64 17.22 26.6 17.21 26.55C17.2 26.54 17.2 26.53 17.2 26.53C17.18 26.47 17.16 26.42 17.13 26.37C17.13 26.35 17.12 26.33 17.11 26.31C17.1 26.28 17.08 26.25 17.07 26.21L17.04 26.15C17.03 26.12 17.01 26.09 17 26.05C16.99 26.03 16.98 26.01 16.97 25.99C16.95 25.96 16.93 25.92 16.91 25.88C16.91 25.87 16.9 25.85 16.89 25.84C16.87 25.79 16.84 25.74 16.82 25.7L16.78 25.63L16.74 25.55L16.7 25.48C16.68 25.46 16.67 25.43 16.65 25.4C16.64 25.38 16.63 25.36 16.61 25.34C16.59 25.31 16.58 25.28 16.56 25.25L16.51 25.17C16.49 25.13 16.46 25.1 16.44 25.06C16.42 25.04 16.41 25.02 16.39 24.99C16.38 24.97 16.36 24.95 16.35 24.92C16.33 24.9 16.31 24.87 16.3 24.85C16.28 24.83 16.26 24.81 16.25 24.79C16.23 24.77 16.21 24.74 16.2 24.71L16.15 24.65C16.11 24.61 16.08 24.56 16.05 24.52L16 24.46C15.98 24.44 15.96 24.41 15.94 24.39L15.9 24.33C15.88 24.31 15.86 24.28 15.83 24.26L15.79 24.21L15.72 24.13L15.68 24.09C15.6 24 15.52 23.91 15.43 23.82L15.4 23.79L15.32 23.71L15.28 23.67C15.25 23.65 15.22 23.62 15.2 23.59L15.17 23.57C15.07 23.48 14.97 23.39 14.87 23.31L14.84 23.29C14.81 23.26 14.78 23.23 14.75 23.21L14.72 23.18C14.68 23.16 14.65 23.13 14.62 23.11L14.6 23.09C14.49 23.01 14.38 22.93 14.26 22.85L14.24 22.83C14.21 22.81 14.17 22.78 14.13 22.76L14.11 22.74C14.07 22.72 14.03 22.7 14 22.67L13.99 22.67C13.86 22.59 13.74 22.51 13.6 22.44L13.6 22.43C13.56 22.41 13.52 22.39 13.48 22.37L13.46 22.36C13.24 22.24 13.01 22.13 12.78 22.03L12.76 22.03C12.7 22 12.64 21.98 12.58 21.95L13.8 21.95C14 21.95 14.16 21.73 14.16 21.47C14.16 21.2 14 20.98 13.8 20.98L13.44 20.98C13.46 20.92 13.49 20.86 13.51 20.79C13.86 20.59 14.46 20.16 15.07 19.36L15.07 19.35C15.12 19.29 15.16 19.23 15.21 19.17L15.21 19.16C15.26 19.09 15.3 19.03 15.34 18.96L15.36 18.94C15.38 18.91 15.4 18.88 15.42 18.85C15.42 18.85 15.42 18.84 15.42 18.84C15.44 18.81 15.46 18.77 15.48 18.74L15.5 18.72C15.51 18.69 15.53 18.66 15.55 18.63C15.55 18.62 15.56 18.62 15.56 18.61C15.58 18.57 15.6 18.54 15.62 18.5L15.63 18.48C15.65 18.45 15.67 18.42 15.68 18.39C15.69 18.38 15.69 18.37 15.7 18.36C15.71 18.33 15.73 18.29 15.75 18.25L15.77 18.22C15.78 18.19 15.8 18.16 15.81 18.13L15.83 18.1C15.85 18.06 15.86 18.02 15.88 17.98L15.89 17.96C15.91 17.93 15.92 17.89 15.94 17.86L15.96 17.82C15.97 17.78 15.99 17.74 16.01 17.7C16.01 17.7 16.01 17.69 16.02 17.68C16.03 17.64 16.05 17.61 16.06 17.57L16.08 17.53C16.09 17.49 16.11 17.46 16.12 17.42L16.13 17.39C16.15 17.35 16.16 17.31 16.18 17.26L16.19 17.22C16.21 17.18 16.22 17.15 16.23 17.11C16.23 17.1 16.24 17.09 16.24 17.07C16.26 17.03 16.27 16.98 16.29 16.94C16.29 16.92 16.3 16.91 16.3 16.89L16.34 16.78C16.34 16.77 16.35 16.75 16.35 16.74C16.36 16.69 16.38 16.64 16.39 16.59C16.4 16.58 16.4 16.56 16.4 16.55C16.41 16.51 16.43 16.47 16.43 16.44C16.44 16.42 16.44 16.4 16.45 16.38C16.46 16.33 16.47 16.28 16.49 16.23L16.5 16.19C16.51 16.15 16.52 16.11 16.52 16.07L16.54 16.01C16.55 15.96 16.56 15.91 16.57 15.85C16.57 15.84 16.58 15.83 16.58 15.82C16.59 15.77 16.6 15.73 16.61 15.68C16.61 15.66 16.61 15.64 16.62 15.62C16.63 15.58 16.63 15.53 16.64 15.48C16.64 15.47 16.65 15.46 16.65 15.45C16.66 15.39 16.67 15.33 16.68 15.28C16.68 15.26 16.68 15.24 16.68 15.22C16.69 15.17 16.7 15.12 16.71 15.07L16.71 15.03C16.72 14.97 16.73 14.91 16.74 14.85C16.74 14.83 16.74 14.81 16.74 14.79C16.75 14.74 16.75 14.69 16.76 14.65C16.76 14.63 16.76 14.61 16.76 14.59C16.77 14.53 16.78 14.47 16.78 14.4C16.78 14.39 16.79 14.37 16.79 14.35C16.79 14.3 16.8 14.25 16.8 14.2C16.8 14.18 16.8 14.16 16.8 14.14C16.81 14.07 16.81 14.01 16.82 13.94C16.82 13.92 16.82 13.91 16.82 13.89C16.82 13.84 16.83 13.78 16.83 13.72C16.83 13.7 16.83 13.68 16.83 13.66C16.83 13.59 16.84 13.52 16.84 13.45C16.84 13.44 16.84 13.43 16.84 13.42C16.84 13.36 16.84 13.3 16.84 13.23C16.84 13.21 16.84 13.19 16.84 13.17C16.84 13.1 16.84 13.03 16.84 12.96L16.84 12.94C16.84 12.87 16.84 12.79 16.84 12.72L16.84 12.65C16.84 12.59 16.84 12.52 16.84 12.45L16.84 12.42C16.84 12.34 16.83 12.26 16.83 12.18C16.83 12.16 16.83 12.14 16.83 12.12C16.82 12.05 16.82 11.98 16.82 11.92C16.82 11.9 16.82 11.88 16.81 11.87C16.81 11.79 16.8 11.7 16.8 11.62L16.79 11.56C16.79 11.5 16.78 11.43 16.78 11.36C16.78 11.34 16.78 11.32 16.77 11.3C16.77 11.21 16.76 11.13 16.75 11.04C16.75 11.03 16.75 11.01 16.75 10.99C16.74 10.92 16.73 10.85 16.72 10.77C16.72 10.75 16.72 10.73 16.72 10.71C16.71 10.62 16.7 10.53 16.68 10.44C16.68 10.43 16.68 10.42 16.68 10.41C16.67 10.33 16.66 10.25 16.65 10.16C16.65 10.14 16.64 10.12 16.64 10.09C16.63 10 16.61 9.91 16.6 9.81C15.23 0.59 5.54 2.08 5.54 2.08L5.85 4.07L0 9.94L0.25 12.2L2.47 13.5C2.57 13.26 2.7 13.03 2.85 12.82C4.28 11.26 7.06 10.03 7.86 9.77C8.01 9.72 8.11 9.69 8.11 9.69C4.3 14.36 4.73 19.71 4.9 20.99C4.73 21.02 4.59 21.22 4.59 21.47C4.59 21.73 4.75 21.95 4.95 21.95L6.17 21.95C4.14 22.76 2.52 24.3 1.68 26.23C1.68 26.23 1.68 26.23 1.68 26.24C1.62 26.38 1.56 26.53 1.51 26.67C1.51 26.67 1.51 26.68 1.51 26.68C1.49 26.72 1.48 26.76 1.46 26.8C1.46 26.81 1.45 26.83 1.45 26.84C1.44 26.88 1.42 26.92 1.41 26.95C1.41 26.97 1.4 26.99 1.4 27.01C1.39 27.04 1.37 27.08 1.36 27.11L1.35 27.18C1.34 27.21 1.33 27.25 1.32 27.28C1.31 27.3 1.31 27.33 1.3 27.35C1.29 27.38 1.28 27.42 1.27 27.45C1.27 27.48 1.26 27.51 1.25 27.55C1.24 27.58 1.23 27.62 1.23 27.66L0.74 27.66C0.64 27.66 0.55 27.67 0.46 27.71C0.38 27.74 0.3 27.79 0.23 27.85C0.16 27.91 0.11 27.99 0.07 28.07C0.04 28.15 0.02 28.24 0.02 28.33C0.02 28.42 0.04 28.5 0.07 28.59C0.11 28.67 0.16 28.74 0.23 28.8C0.3 28.87 0.38 28.92 0.46 28.95C0.55 28.98 0.64 29 0.74 28.99L18.03 28.99C18.12 29 18.21 28.98 18.3 28.95C18.39 28.92 18.47 28.87 18.53 28.8C18.6 28.74 18.65 28.67 18.69 28.59C18.73 28.5 18.75 28.42 18.75 28.33C18.75 28.24 18.73 28.15 18.69 28.07C18.65 27.99 18.6 27.91 18.53 27.85C18.47 27.79 18.39 27.74 18.3 27.71C18.21 27.67 18.12 27.66 18.03 27.66L18.02 27.65Z" fill="#595653" fill-opacity="1.000000" fill-rule="nonzero"/>
	<path id="Vector" d="" fill="#E7DBD0" fill-opacity="0" fill-rule="evenodd"/>
	<path id="Vector" d="M38.27 27.65L37.78 27.65C37.78 27.65 37.78 27.64 37.78 27.64L37.76 27.58C37.76 27.54 37.75 27.5 37.74 27.46C37.73 27.44 37.73 27.43 37.72 27.41C37.71 27.36 37.7 27.31 37.68 27.26L37.68 27.24C37.67 27.19 37.65 27.13 37.63 27.08L37.62 27.02C37.61 26.99 37.59 26.95 37.58 26.91C37.58 26.89 37.57 26.87 37.56 26.85C37.55 26.81 37.54 26.78 37.53 26.74C37.52 26.72 37.51 26.71 37.51 26.69C37.49 26.64 37.47 26.6 37.46 26.55C37.45 26.54 37.45 26.53 37.45 26.53C37.43 26.47 37.41 26.42 37.38 26.37C37.38 26.35 37.37 26.33 37.36 26.31C37.35 26.28 37.33 26.25 37.32 26.21L37.29 26.15C37.28 26.12 37.26 26.09 37.25 26.05C37.24 26.03 37.23 26.01 37.22 25.99C37.2 25.96 37.18 25.92 37.16 25.88C37.16 25.87 37.15 25.85 37.14 25.84C37.12 25.79 37.09 25.74 37.07 25.7L37.03 25.63L36.99 25.55L36.95 25.48C36.93 25.46 36.92 25.43 36.9 25.4C36.89 25.38 36.88 25.36 36.86 25.34C36.84 25.31 36.83 25.28 36.81 25.25L36.76 25.17C36.74 25.13 36.71 25.1 36.69 25.06C36.67 25.04 36.66 25.02 36.64 24.99C36.63 24.97 36.61 24.95 36.6 24.92C36.58 24.9 36.56 24.87 36.55 24.85C36.53 24.83 36.51 24.81 36.5 24.79C36.48 24.77 36.46 24.74 36.45 24.71L36.4 24.65C36.36 24.61 36.33 24.56 36.3 24.52L36.25 24.46C36.23 24.44 36.21 24.41 36.19 24.39L36.15 24.33C36.13 24.31 36.11 24.28 36.08 24.26L36.04 24.21L35.97 24.13L35.93 24.09C35.85 24 35.77 23.91 35.68 23.82L35.65 23.79L35.57 23.71L35.53 23.67C35.5 23.65 35.47 23.62 35.45 23.59L35.42 23.57C35.32 23.48 35.22 23.39 35.12 23.31L35.09 23.29C35.06 23.26 35.03 23.23 35 23.21L34.97 23.18C34.93 23.16 34.9 23.13 34.87 23.11L34.85 23.09C34.74 23.01 34.62 22.93 34.51 22.85L34.49 22.83C34.46 22.81 34.42 22.78 34.38 22.76L34.36 22.74C34.32 22.72 34.28 22.7 34.25 22.67L34.24 22.67C34.11 22.59 33.99 22.51 33.85 22.44L33.85 22.43C33.81 22.41 33.77 22.39 33.73 22.37L33.71 22.36C33.49 22.24 33.26 22.13 33.03 22.03L33.01 22.03C32.95 22 32.89 21.98 32.83 21.95L34.05 21.95C34.25 21.95 34.41 21.73 34.41 21.47C34.41 21.2 34.25 20.98 34.05 20.98L33.69 20.98C33.71 20.92 33.74 20.86 33.76 20.79C34.11 20.59 34.71 20.16 35.32 19.36L35.32 19.35C35.37 19.29 35.41 19.23 35.45 19.17L35.46 19.16C35.51 19.09 35.55 19.03 35.59 18.96L35.61 18.94C35.63 18.91 35.65 18.88 35.67 18.85C35.67 18.85 35.67 18.84 35.67 18.84C35.69 18.81 35.71 18.77 35.73 18.74L35.75 18.72C35.76 18.69 35.78 18.66 35.8 18.63C35.8 18.62 35.81 18.62 35.81 18.61C35.83 18.57 35.85 18.54 35.87 18.5L35.88 18.48C35.9 18.45 35.92 18.42 35.93 18.39C35.94 18.38 35.94 18.37 35.95 18.36C35.96 18.33 35.98 18.29 36 18.25L36.02 18.22C36.03 18.19 36.05 18.16 36.06 18.13L36.08 18.1C36.1 18.06 36.11 18.02 36.13 17.98L36.14 17.96C36.16 17.93 36.17 17.89 36.19 17.86L36.21 17.82C36.22 17.78 36.24 17.74 36.26 17.7C36.26 17.7 36.26 17.69 36.27 17.68C36.28 17.64 36.3 17.61 36.31 17.57L36.33 17.53C36.34 17.49 36.36 17.46 36.37 17.42L36.38 17.39C36.4 17.35 36.41 17.31 36.43 17.26L36.44 17.22C36.46 17.18 36.47 17.15 36.48 17.11C36.48 17.1 36.49 17.09 36.49 17.07C36.51 17.03 36.52 16.98 36.54 16.94C36.54 16.92 36.55 16.91 36.55 16.89L36.59 16.78C36.59 16.77 36.6 16.75 36.6 16.74C36.61 16.69 36.63 16.64 36.64 16.59C36.65 16.58 36.65 16.56 36.65 16.55C36.66 16.51 36.67 16.47 36.68 16.44C36.69 16.42 36.69 16.4 36.7 16.38C36.71 16.33 36.72 16.28 36.74 16.23L36.75 16.19C36.76 16.15 36.77 16.11 36.77 16.07L36.79 16.01C36.8 15.96 36.81 15.91 36.82 15.85C36.82 15.84 36.83 15.83 36.83 15.82C36.84 15.77 36.85 15.73 36.86 15.68C36.86 15.66 36.86 15.64 36.87 15.62C36.88 15.58 36.88 15.53 36.89 15.48C36.89 15.47 36.9 15.46 36.9 15.45C36.91 15.39 36.92 15.33 36.93 15.28C36.93 15.26 36.93 15.24 36.93 15.22C36.94 15.17 36.95 15.12 36.96 15.07L36.96 15.03C36.97 14.97 36.98 14.91 36.99 14.85C36.99 14.83 36.99 14.81 36.99 14.79C37 14.74 37 14.69 37.01 14.65C37.01 14.63 37.01 14.61 37.01 14.59C37.02 14.53 37.03 14.47 37.03 14.4C37.03 14.39 37.04 14.37 37.04 14.35C37.04 14.3 37.05 14.25 37.05 14.2C37.05 14.18 37.05 14.16 37.05 14.14C37.06 14.07 37.06 14.01 37.07 13.94C37.07 13.92 37.07 13.91 37.07 13.89C37.07 13.84 37.08 13.78 37.08 13.72C37.08 13.7 37.08 13.68 37.08 13.66C37.08 13.59 37.09 13.52 37.09 13.45C37.09 13.44 37.09 13.43 37.09 13.42C37.09 13.36 37.09 13.3 37.09 13.23C37.09 13.21 37.09 13.19 37.09 13.17C37.09 13.1 37.09 13.03 37.09 12.96L37.09 12.94C37.09 12.87 37.09 12.79 37.09 12.72L37.09 12.65C37.09 12.59 37.09 12.52 37.09 12.45L37.09 12.42C37.09 12.34 37.08 12.26 37.08 12.18C37.08 12.16 37.08 12.14 37.08 12.12C37.07 12.05 37.07 11.98 37.07 11.92C37.07 11.9 37.07 11.88 37.06 11.87C37.06 11.79 37.05 11.7 37.05 11.62L37.04 11.56C37.04 11.5 37.03 11.43 37.03 11.36C37.03 11.34 37.03 11.32 37.02 11.3C37.02 11.21 37.01 11.13 37 11.04C37 11.03 37 11.01 37 10.99C36.99 10.92 36.98 10.85 36.97 10.77C36.97 10.75 36.97 10.73 36.97 10.71C36.96 10.62 36.95 10.53 36.93 10.44C36.93 10.43 36.93 10.42 36.93 10.41C36.92 10.33 36.91 10.25 36.9 10.16C36.9 10.14 36.89 10.12 36.89 10.09C36.88 10 36.86 9.91 36.85 9.81C35.48 0.59 25.79 2.08 25.79 2.08L26.1 4.07L20.24 9.94L20.5 12.2L22.72 13.5C22.82 13.26 22.95 13.03 23.1 12.82C24.53 11.26 27.31 10.03 28.11 9.77C28.26 9.72 28.35 9.69 28.35 9.69C24.55 14.36 24.98 19.71 25.15 20.99C24.98 21.02 24.84 21.22 24.84 21.47C24.84 21.73 25 21.95 25.2 21.95L26.42 21.95C24.39 22.76 22.77 24.3 21.93 26.23C21.93 26.23 21.93 26.23 21.93 26.24C21.87 26.38 21.81 26.53 21.75 26.67C21.76 26.67 21.76 26.68 21.75 26.68C21.74 26.72 21.73 26.76 21.71 26.8C21.71 26.81 21.7 26.83 21.7 26.84C21.69 26.88 21.67 26.92 21.66 26.95C21.66 26.97 21.65 26.99 21.65 27.01C21.63 27.04 21.62 27.08 21.61 27.11L21.6 27.18C21.59 27.21 21.58 27.25 21.57 27.28C21.56 27.3 21.55 27.33 21.55 27.35C21.54 27.38 21.53 27.42 21.52 27.45C21.52 27.48 21.51 27.51 21.5 27.55C21.49 27.58 21.48 27.62 21.48 27.66L20.99 27.66C20.89 27.66 20.8 27.67 20.71 27.71C20.63 27.74 20.55 27.79 20.48 27.85C20.41 27.91 20.36 27.99 20.32 28.07C20.29 28.15 20.27 28.24 20.27 28.33C20.27 28.42 20.29 28.5 20.32 28.59C20.36 28.67 20.41 28.74 20.48 28.8C20.55 28.87 20.63 28.92 20.71 28.95C20.8 28.98 20.89 29 20.99 28.99L38.27 28.99C38.37 29 38.46 28.98 38.55 28.95C38.64 28.92 38.72 28.87 38.78 28.8C38.85 28.74 38.9 28.67 38.94 28.59C38.98 28.5 38.99 28.42 38.99 28.33C38.99 28.24 38.98 28.15 38.94 28.07C38.9 27.99 38.85 27.91 38.78 27.85C38.72 27.79 38.64 27.74 38.55 27.71C38.46 27.67 38.37 27.66 38.27 27.66L38.27 27.65Z" fill="#595653" fill-opacity="1.000000" fill-rule="nonzero"/>
	<path id="Vector" d="" fill="#E7DBD0" fill-opacity="0" fill-rule="evenodd"/>
	<path id="Vector" d="M58.52 27.65L58.03 27.65C58.03 27.65 58.03 27.64 58.03 27.64L58.02 27.58C58.01 27.54 58 27.5 57.99 27.46C57.98 27.44 57.98 27.43 57.97 27.41C57.96 27.36 57.95 27.31 57.93 27.26L57.93 27.24C57.92 27.19 57.9 27.13 57.88 27.08L57.87 27.02C57.86 26.99 57.84 26.95 57.83 26.91C57.83 26.89 57.82 26.87 57.81 26.85C57.8 26.81 57.79 26.78 57.78 26.74C57.77 26.72 57.76 26.71 57.76 26.69C57.74 26.64 57.72 26.6 57.71 26.55C57.7 26.54 57.7 26.53 57.7 26.53C57.68 26.47 57.66 26.42 57.63 26.37C57.63 26.35 57.62 26.33 57.61 26.31C57.6 26.28 57.58 26.25 57.57 26.21L57.54 26.15C57.53 26.12 57.51 26.09 57.5 26.05C57.49 26.03 57.48 26.01 57.47 25.99C57.45 25.96 57.43 25.92 57.41 25.88C57.41 25.87 57.4 25.85 57.39 25.84C57.37 25.79 57.34 25.74 57.32 25.7L57.28 25.63L57.24 25.55L57.2 25.48C57.18 25.46 57.17 25.43 57.15 25.4C57.14 25.38 57.13 25.36 57.11 25.34C57.1 25.31 57.08 25.28 57.06 25.25L57.01 25.17C56.99 25.13 56.96 25.1 56.94 25.06C56.92 25.04 56.91 25.02 56.89 24.99C56.88 24.97 56.86 24.95 56.85 24.92C56.83 24.9 56.81 24.87 56.8 24.85C56.78 24.83 56.77 24.81 56.75 24.79C56.73 24.77 56.71 24.74 56.7 24.71L56.65 24.65C56.61 24.61 56.58 24.56 56.55 24.52L56.5 24.46C56.48 24.44 56.46 24.41 56.44 24.39L56.4 24.33C56.38 24.31 56.36 24.28 56.33 24.26L56.29 24.21L56.22 24.13L56.18 24.09C56.1 24 56.02 23.91 55.93 23.82L55.9 23.79L55.82 23.71L55.78 23.67C55.75 23.65 55.72 23.62 55.7 23.59L55.67 23.57C55.57 23.48 55.47 23.39 55.37 23.31L55.34 23.29C55.31 23.26 55.28 23.23 55.25 23.21L55.22 23.18C55.18 23.16 55.15 23.13 55.12 23.11L55.1 23.09C54.99 23.01 54.88 22.93 54.76 22.85L54.74 22.83C54.71 22.81 54.67 22.78 54.63 22.76L54.61 22.74C54.57 22.72 54.53 22.7 54.5 22.67L54.49 22.67C54.36 22.59 54.24 22.51 54.1 22.44L54.1 22.43C54.06 22.41 54.02 22.39 53.98 22.37L53.96 22.36C53.74 22.24 53.51 22.13 53.28 22.03L53.27 22.03C53.2 22 53.14 21.98 53.08 21.95L54.3 21.95C54.5 21.95 54.66 21.73 54.66 21.47C54.66 21.2 54.5 20.98 54.3 20.98L53.94 20.98C53.96 20.92 53.99 20.86 54.01 20.79C54.36 20.59 54.96 20.16 55.57 19.36L55.57 19.35C55.62 19.29 55.66 19.23 55.71 19.17L55.71 19.16C55.76 19.09 55.8 19.03 55.84 18.96L55.86 18.94C55.88 18.91 55.9 18.88 55.92 18.85C55.92 18.85 55.92 18.84 55.92 18.84C55.94 18.81 55.96 18.77 55.98 18.74L56 18.72C56.01 18.69 56.03 18.66 56.05 18.63C56.05 18.62 56.06 18.62 56.06 18.61C56.08 18.57 56.1 18.54 56.12 18.5L56.13 18.48C56.15 18.45 56.17 18.42 56.18 18.39C56.19 18.38 56.19 18.37 56.2 18.36C56.22 18.33 56.23 18.29 56.25 18.25L56.27 18.22C56.28 18.19 56.3 18.16 56.31 18.13L56.33 18.1C56.35 18.06 56.37 18.02 56.38 17.98L56.39 17.96C56.41 17.93 56.42 17.89 56.44 17.86L56.46 17.82C56.47 17.78 56.49 17.74 56.51 17.7C56.51 17.7 56.51 17.69 56.52 17.68C56.53 17.64 56.55 17.61 56.56 17.57L56.58 17.53C56.59 17.49 56.61 17.46 56.62 17.42L56.63 17.39C56.65 17.35 56.66 17.31 56.68 17.26L56.69 17.22C56.71 17.18 56.72 17.15 56.73 17.11C56.74 17.1 56.74 17.09 56.74 17.07C56.76 17.03 56.77 16.98 56.79 16.94C56.79 16.92 56.8 16.91 56.8 16.89L56.84 16.78C56.84 16.77 56.85 16.75 56.85 16.74C56.86 16.69 56.88 16.64 56.89 16.59C56.9 16.58 56.9 16.56 56.9 16.55C56.92 16.51 56.93 16.47 56.94 16.44C56.94 16.42 56.94 16.4 56.95 16.38C56.96 16.33 56.97 16.28 56.99 16.23L57 16.19C57.01 16.15 57.02 16.11 57.03 16.07L57.04 16.01C57.05 15.96 57.06 15.91 57.07 15.85C57.07 15.84 57.08 15.83 57.08 15.82C57.09 15.77 57.1 15.73 57.11 15.68C57.11 15.66 57.11 15.64 57.12 15.62C57.13 15.58 57.13 15.53 57.14 15.48C57.14 15.47 57.15 15.46 57.15 15.45C57.16 15.39 57.17 15.33 57.18 15.28C57.18 15.26 57.18 15.24 57.19 15.22C57.19 15.17 57.2 15.12 57.21 15.07L57.21 15.03C57.22 14.97 57.23 14.91 57.24 14.85C57.24 14.83 57.24 14.81 57.24 14.79C57.25 14.74 57.25 14.69 57.26 14.65C57.26 14.63 57.26 14.61 57.26 14.59C57.27 14.53 57.28 14.47 57.28 14.4C57.28 14.39 57.29 14.37 57.29 14.35C57.29 14.3 57.3 14.25 57.3 14.2C57.3 14.18 57.3 14.16 57.3 14.14C57.31 14.07 57.31 14.01 57.32 13.94C57.32 13.92 57.32 13.91 57.32 13.89C57.32 13.84 57.33 13.78 57.33 13.72C57.33 13.7 57.33 13.68 57.33 13.66C57.33 13.59 57.34 13.52 57.34 13.45C57.34 13.44 57.34 13.43 57.34 13.42C57.34 13.36 57.34 13.3 57.34 13.23C57.34 13.21 57.34 13.19 57.34 13.17C57.34 13.1 57.34 13.03 57.34 12.96L57.34 12.94C57.34 12.87 57.34 12.79 57.34 12.72L57.34 12.65C57.34 12.59 57.34 12.52 57.34 12.45L57.34 12.42C57.34 12.34 57.33 12.26 57.33 12.18C57.33 12.16 57.33 12.14 57.33 12.12C57.32 12.05 57.32 11.98 57.32 11.92C57.32 11.9 57.32 11.88 57.31 11.87C57.31 11.79 57.3 11.7 57.3 11.62L57.29 11.56C57.29 11.5 57.28 11.43 57.28 11.36C57.28 11.34 57.28 11.32 57.27 11.3C57.27 11.21 57.26 11.13 57.25 11.04C57.25 11.03 57.25 11.01 57.25 10.99C57.24 10.92 57.23 10.85 57.22 10.77C57.22 10.75 57.22 10.73 57.22 10.71C57.21 10.62 57.2 10.53 57.18 10.44C57.18 10.43 57.18 10.42 57.18 10.41C57.17 10.33 57.16 10.25 57.15 10.16C57.15 10.14 57.14 10.12 57.14 10.09C57.13 10 57.11 9.91 57.1 9.81C55.73 0.59 46.04 2.08 46.04 2.08L46.35 4.07L40.5 9.94L40.75 12.2L42.97 13.5C43.07 13.26 43.2 13.03 43.35 12.82C44.78 11.26 47.56 10.03 48.36 9.77C48.51 9.72 48.61 9.69 48.61 9.69C44.8 14.36 45.23 19.71 45.4 20.99C45.23 21.02 45.09 21.22 45.09 21.47C45.09 21.73 45.25 21.95 45.45 21.95L46.67 21.95C44.64 22.76 43.03 24.3 42.18 26.23C42.18 26.23 42.18 26.23 42.18 26.24C42.12 26.38 42.06 26.53 42.01 26.67C42.01 26.67 42.01 26.68 42.01 26.68C41.99 26.72 41.98 26.76 41.96 26.8C41.96 26.81 41.95 26.83 41.95 26.84C41.94 26.88 41.92 26.92 41.91 26.95C41.91 26.97 41.9 26.99 41.9 27.01C41.89 27.04 41.87 27.08 41.86 27.11L41.85 27.18C41.84 27.21 41.83 27.25 41.82 27.28C41.81 27.3 41.81 27.33 41.8 27.35C41.79 27.38 41.78 27.42 41.77 27.45C41.77 27.48 41.76 27.51 41.75 27.55C41.74 27.58 41.73 27.62 41.73 27.66L41.24 27.66C41.14 27.66 41.05 27.67 40.96 27.71C40.88 27.74 40.8 27.79 40.73 27.85C40.66 27.91 40.61 27.99 40.57 28.07C40.54 28.15 40.52 28.24 40.52 28.33C40.52 28.42 40.54 28.5 40.57 28.59C40.61 28.67 40.66 28.74 40.73 28.8C40.8 28.87 40.88 28.92 40.96 28.95C41.05 28.98 41.14 29 41.24 28.99L58.53 28.99C58.62 29 58.71 28.98 58.8 28.95C58.89 28.92 58.97 28.87 59.03 28.8C59.1 28.74 59.15 28.67 59.19 28.59C59.23 28.5 59.25 28.42 59.25 28.33C59.25 28.24 59.23 28.15 59.19 28.07C59.15 27.99 59.1 27.91 59.03 27.85C58.97 27.79 58.89 27.74 58.8 27.71C58.71 27.67 58.62 27.66 58.53 27.66L58.52 27.65Z" fill="#595653" fill-opacity="1.000000" fill-rule="nonzero"/>
	<path id="Vector" d="" fill="#E7DBD0" fill-opacity="0" fill-rule="evenodd"/>
	<path id="Vector" d="M78.77 27.65L78.28 27.65C78.28 27.65 78.28 27.64 78.28 27.64L78.26 27.58C78.26 27.54 78.25 27.5 78.24 27.46C78.23 27.44 78.23 27.43 78.22 27.41C78.21 27.36 78.2 27.31 78.18 27.26L78.18 27.24C78.17 27.19 78.15 27.13 78.13 27.08L78.12 27.02C78.11 26.99 78.09 26.95 78.08 26.91C78.08 26.89 78.07 26.87 78.06 26.85C78.05 26.81 78.04 26.78 78.03 26.74C78.02 26.72 78.01 26.71 78.01 26.69C77.99 26.64 77.97 26.6 77.96 26.55C77.95 26.54 77.95 26.53 77.95 26.53C77.93 26.47 77.91 26.42 77.88 26.37C77.88 26.35 77.87 26.33 77.86 26.31C77.85 26.28 77.83 26.25 77.82 26.21L77.79 26.15C77.78 26.12 77.76 26.09 77.75 26.05C77.74 26.03 77.73 26.01 77.72 25.99C77.7 25.96 77.68 25.92 77.66 25.88C77.66 25.87 77.65 25.85 77.64 25.84C77.62 25.79 77.59 25.74 77.57 25.7L77.53 25.63L77.49 25.55L77.45 25.48C77.43 25.46 77.42 25.43 77.4 25.4C77.39 25.38 77.38 25.36 77.36 25.34C77.34 25.31 77.33 25.28 77.31 25.25L77.26 25.17C77.24 25.13 77.21 25.1 77.19 25.06C77.17 25.04 77.16 25.02 77.14 24.99C77.13 24.97 77.11 24.95 77.1 24.92C77.08 24.9 77.06 24.87 77.05 24.85C77.03 24.83 77.01 24.81 77 24.79C76.98 24.77 76.96 24.74 76.95 24.71L76.9 24.65C76.86 24.61 76.83 24.56 76.8 24.52L76.75 24.46C76.73 24.44 76.71 24.41 76.69 24.39L76.65 24.33C76.63 24.31 76.61 24.28 76.58 24.26L76.54 24.21L76.47 24.13L76.43 24.09C76.35 24 76.27 23.91 76.18 23.82L76.15 23.79L76.07 23.71L76.03 23.67C76 23.65 75.97 23.62 75.95 23.59L75.92 23.57C75.82 23.48 75.72 23.39 75.62 23.31L75.59 23.29C75.56 23.26 75.53 23.23 75.5 23.21L75.47 23.18C75.43 23.16 75.4 23.13 75.37 23.11L75.35 23.09C75.24 23.01 75.13 22.93 75.01 22.85L74.99 22.83C74.96 22.81 74.92 22.78 74.88 22.76L74.86 22.74C74.82 22.72 74.78 22.7 74.75 22.67L74.74 22.67C74.61 22.59 74.49 22.51 74.35 22.44L74.35 22.43C74.31 22.41 74.27 22.39 74.23 22.37L74.21 22.36C73.99 22.24 73.76 22.13 73.53 22.03L73.51 22.03C73.45 22 73.39 21.98 73.33 21.95L74.55 21.95C74.75 21.95 74.91 21.73 74.91 21.47C74.91 21.2 74.75 20.98 74.55 20.98L74.19 20.98C74.21 20.92 74.24 20.86 74.26 20.79C74.61 20.59 75.21 20.16 75.82 19.36L75.82 19.35C75.87 19.29 75.91 19.23 75.96 19.17L75.96 19.16C76.01 19.09 76.05 19.03 76.09 18.96L76.11 18.94C76.13 18.91 76.15 18.88 76.17 18.85C76.17 18.85 76.17 18.84 76.17 18.84C76.19 18.81 76.21 18.77 76.23 18.74L76.25 18.72C76.26 18.69 76.28 18.66 76.3 18.63C76.3 18.62 76.31 18.62 76.31 18.61C76.33 18.57 76.35 18.54 76.37 18.5L76.38 18.48C76.4 18.45 76.42 18.42 76.43 18.39C76.44 18.38 76.44 18.37 76.45 18.36C76.46 18.33 76.48 18.29 76.5 18.25L76.52 18.22C76.53 18.19 76.55 18.16 76.56 18.13L76.58 18.1C76.6 18.06 76.61 18.02 76.63 17.98L76.64 17.96C76.66 17.93 76.67 17.89 76.69 17.86L76.71 17.82C76.72 17.78 76.74 17.74 76.76 17.7C76.76 17.7 76.76 17.69 76.77 17.68C76.78 17.64 76.8 17.61 76.81 17.57L76.83 17.53C76.84 17.49 76.86 17.46 76.87 17.42L76.88 17.39C76.9 17.35 76.91 17.31 76.93 17.26L76.94 17.22C76.96 17.18 76.97 17.15 76.98 17.11C76.98 17.1 76.99 17.09 76.99 17.07C77.01 17.03 77.02 16.98 77.04 16.94C77.04 16.92 77.05 16.91 77.05 16.89L77.09 16.78C77.09 16.77 77.1 16.75 77.1 16.74C77.11 16.69 77.13 16.64 77.14 16.59C77.15 16.58 77.15 16.56 77.15 16.55C77.16 16.51 77.18 16.47 77.18 16.44C77.19 16.42 77.19 16.4 77.2 16.38C77.21 16.33 77.22 16.28 77.24 16.23L77.25 16.19C77.26 16.15 77.27 16.11 77.27 16.07L77.29 16.01C77.3 15.96 77.31 15.91 77.32 15.85C77.32 15.84 77.33 15.83 77.33 15.82C77.34 15.77 77.35 15.73 77.36 15.68C77.36 15.66 77.36 15.64 77.37 15.62C77.38 15.58 77.38 15.53 77.39 15.48C77.39 15.47 77.4 15.46 77.4 15.45C77.41 15.39 77.42 15.33 77.43 15.28C77.43 15.26 77.43 15.24 77.43 15.22C77.44 15.17 77.45 15.12 77.46 15.07L77.46 15.03C77.47 14.97 77.48 14.91 77.49 14.85C77.49 14.83 77.49 14.81 77.49 14.79C77.5 14.74 77.5 14.69 77.51 14.65C77.51 14.63 77.51 14.61 77.51 14.59C77.52 14.53 77.53 14.47 77.53 14.4C77.53 14.39 77.54 14.37 77.54 14.35C77.54 14.3 77.55 14.25 77.55 14.2C77.55 14.18 77.55 14.16 77.55 14.14C77.56 14.07 77.56 14.01 77.57 13.94C77.57 13.92 77.57 13.91 77.57 13.89C77.57 13.84 77.58 13.78 77.58 13.72C77.58 13.7 77.58 13.68 77.58 13.66C77.58 13.59 77.59 13.52 77.59 13.45C77.59 13.44 77.59 13.43 77.59 13.42C77.59 13.36 77.59 13.3 77.59 13.23C77.59 13.21 77.59 13.19 77.59 13.17C77.59 13.1 77.59 13.03 77.59 12.96L77.59 12.94C77.59 12.87 77.59 12.79 77.59 12.72L77.59 12.65C77.59 12.59 77.59 12.52 77.59 12.45L77.59 12.42C77.59 12.34 77.58 12.26 77.58 12.18C77.58 12.16 77.58 12.14 77.58 12.12C77.57 12.05 77.57 11.98 77.57 11.92C77.57 11.9 77.57 11.88 77.56 11.87C77.56 11.79 77.55 11.7 77.55 11.62L77.54 11.56C77.54 11.5 77.53 11.43 77.53 11.36C77.53 11.34 77.53 11.32 77.52 11.3C77.52 11.21 77.51 11.13 77.5 11.04C77.5 11.03 77.5 11.01 77.5 10.99C77.49 10.92 77.48 10.85 77.47 10.77C77.47 10.75 77.47 10.73 77.47 10.71C77.46 10.62 77.45 10.53 77.43 10.44C77.43 10.43 77.43 10.42 77.43 10.41C77.42 10.33 77.41 10.25 77.4 10.16C77.4 10.14 77.39 10.12 77.39 10.09C77.38 10 77.36 9.91 77.35 9.81C75.98 0.59 66.29 2.08 66.29 2.08L66.6 4.07L60.75 9.94L61 12.2L63.22 13.5C63.32 13.26 63.45 13.03 63.6 12.82C65.03 11.26 67.81 10.03 68.61 9.77C68.76 9.72 68.86 9.69 68.86 9.69C65.05 14.36 65.48 19.71 65.65 20.99C65.48 21.02 65.34 21.22 65.34 21.47C65.34 21.73 65.5 21.95 65.7 21.95L66.92 21.95C64.89 22.76 63.27 24.3 62.43 26.23C62.43 26.23 62.43 26.23 62.43 26.24C62.37 26.38 62.31 26.53 62.26 26.67C62.26 26.67 62.26 26.68 62.26 26.68C62.24 26.72 62.23 26.76 62.21 26.8C62.21 26.81 62.2 26.83 62.2 26.84C62.19 26.88 62.17 26.92 62.16 26.95C62.16 26.97 62.15 26.99 62.15 27.01C62.14 27.04 62.12 27.08 62.11 27.11L62.1 27.18C62.09 27.21 62.08 27.25 62.07 27.28C62.06 27.3 62.06 27.33 62.05 27.35C62.04 27.38 62.03 27.42 62.02 27.45C62.02 27.48 62.01 27.51 62 27.55C61.99 27.58 61.98 27.62 61.98 27.66L61.49 27.66C61.39 27.66 61.3 27.67 61.21 27.71C61.13 27.74 61.05 27.79 60.98 27.85C60.91 27.91 60.86 27.99 60.82 28.07C60.79 28.15 60.77 28.24 60.77 28.33C60.77 28.42 60.79 28.5 60.82 28.59C60.86 28.67 60.91 28.74 60.98 28.8C61.05 28.87 61.13 28.92 61.21 28.95C61.3 28.98 61.39 29 61.49 28.99L78.78 28.99C78.87 29 78.96 28.98 79.05 28.95C79.14 28.92 79.22 28.87 79.28 28.8C79.35 28.74 79.4 28.67 79.44 28.59C79.48 28.5 79.5 28.42 79.5 28.33C79.5 28.24 79.48 28.15 79.44 28.07C79.4 27.99 79.35 27.91 79.28 27.85C79.22 27.79 79.14 27.74 79.05 27.71C78.96 27.67 78.87 27.66 78.78 27.66L78.77 27.65Z" fill="#595653" fill-opacity="1.000000" fill-rule="nonzero"/>
	<path id="Vector" d="" fill="#E7DBD0" fill-opacity="0" fill-rule="evenodd"/>
	<path id="Клуб четырех коней" d="M92.2 13L94.69 13L90.73 7.64L94.48 2.7L92.16 2.7L88.47 7.69L88.47 2.7L86.29 2.7L86.29 13L88.47 13L88.47 7.77L92.2 13ZM101.95 13L104.13 13L104.13 2.7L97.63 2.7Q97.45 4.18 97.26 5.5Q97.06 6.82 96.9 7.81Q96.75 8.79 96.66 9.25Q96.43 10.46 96.2 10.9Q96.06 11.18 95.84 11.28Q95.71 11.34 95.56 11.34Q95.35 11.34 95.17 11.29Q94.99 11.25 94.8 11.19L94.8 12.98Q95.27 13.14 95.84 13.14Q96.7 13.14 97.24 12.81Q97.34 12.75 97.43 12.68Q97.84 12.37 98.09 11.84Q98.4 11.21 98.59 10.31Q98.71 9.76 98.82 9.05Q98.94 8.34 99.04 7.54Q99.15 6.74 99.25 5.96Q99.34 5.18 99.43 4.52L101.95 4.52L101.95 13ZM110.88 11.68Q111.37 10.96 111.8 9.98L114.99 2.7L112.74 2.7L110.95 7.03Q110.82 7.34 110.65 7.76Q110.49 8.18 110.4 8.44L110.33 8.44Q110.24 8.17 110.07 7.77Q109.9 7.37 109.79 7.16L107.88 2.7L105.57 2.7L109.13 10.1Q108.94 10.6 108.62 10.96Q108.31 11.31 107.59 11.31Q107.23 11.31 106.81 11.25Q106.39 11.19 106.04 11.05L106.04 12.92Q106.42 13.02 106.87 13.08Q107.32 13.14 107.69 13.14Q108.9 13.14 109.65 12.77Q109.94 12.62 110.2 12.42Q110.59 12.11 110.88 11.68ZM116.28 2.7L116.28 13L119.28 13Q121.5 13 122.52 12.15Q122.83 11.9 123.04 11.57Q123.53 10.84 123.53 9.78Q123.53 9.09 123.28 8.52Q123.19 8.34 123.09 8.17L123.08 8.16Q122.64 7.46 121.71 7.06Q120.78 6.65 119.32 6.65L118.46 6.65L118.46 4.5L122.78 4.5L122.78 2.7L116.28 2.7ZM120.76 10.89Q120.19 11.21 119.19 11.21L118.46 11.21L118.46 8.44L119.02 8.44Q120.09 8.44 120.71 8.7Q120.92 8.79 121.06 8.94Q121.33 9.24 121.33 9.78Q121.33 10.32 121.06 10.64Q120.94 10.79 120.76 10.89ZM204.36 16.63Q204.7 16.06 204.78 15.31L202.83 15.31Q202.76 16.06 202.36 16.34Q201.96 16.63 201.34 16.63Q200.59 16.63 200.26 16.37Q199.93 16.11 199.86 15.31L197.94 15.31Q198 16.09 198.3 16.65Q198.33 16.7 198.36 16.75Q198.66 17.24 199.32 17.53Q200.03 17.84 201.3 17.84Q202.54 17.84 203.28 17.52Q203.99 17.21 204.34 16.66Q204.35 16.65 204.36 16.63ZM174.72 26.62Q175.25 25.43 175.25 23.83Q175.25 22.23 174.72 21.04Q174.42 20.36 173.94 19.86Q173.58 19.48 173.11 19.2Q172.03 18.54 170.36 18.54Q168.67 18.54 167.59 19.2Q167.1 19.49 166.73 19.89Q166.26 20.38 165.97 21.04Q165.45 22.22 165.45 23.82Q165.45 25.42 165.97 26.62Q166.27 27.3 166.76 27.81Q167.12 28.19 167.59 28.48Q168.67 29.14 170.35 29.14Q172.03 29.14 173.11 28.48Q173.59 28.19 173.95 27.79Q174.43 27.29 174.72 26.62ZM92.02 29L94.19 29L94.19 18.7L92.02 18.7L92.02 23.31Q91.27 23.57 90.66 23.7Q90.06 23.83 89.45 23.83Q88.63 23.83 88.28 23.46Q87.94 23.09 87.94 22.34L87.94 18.7L85.76 18.7L85.76 22.95Q85.76 23.94 86.23 24.58Q86.38 24.78 86.57 24.95Q87.39 25.65 88.83 25.65Q89 25.65 89.16 25.64Q89.76 25.62 90.35 25.49Q91.11 25.33 92.02 25.02L92.02 29ZM96.79 29L102.71 29L102.71 27.19L98.97 27.19L98.97 24.54L102.45 24.54L102.45 22.75L98.97 22.75L98.97 20.49L102.71 20.49L102.71 18.7L96.79 18.7L96.79 29ZM106.65 29L108.83 29L108.83 20.52L111.63 20.52L111.63 18.7L103.85 18.7L103.85 20.52L106.65 20.52L106.65 29ZM113.21 18.7L113.21 29L116.02 29Q118.23 29 119.23 28.15Q119.54 27.9 119.75 27.59Q120.24 26.85 120.24 25.78Q120.24 25.07 119.98 24.49Q119.9 24.32 119.8 24.17Q119.8 24.16 119.8 24.15Q119.36 23.45 118.44 23.06Q117.52 22.65 116.09 22.65L115.39 22.65L115.39 18.7L113.21 18.7ZM121.5 18.7L121.5 29L123.68 29L123.68 18.7L121.5 18.7ZM132.47 19.56Q131.55 18.7 129.56 18.7L126.27 18.7L126.27 29L128.45 29L128.45 25.33L129.39 25.33Q130.89 25.33 131.76 24.86Q132.49 24.46 132.88 23.83Q132.95 23.72 133 23.6Q133.14 23.31 133.23 23.01Q133.38 22.48 133.38 21.92Q133.38 20.76 132.84 19.99Q132.68 19.76 132.47 19.56ZM135.33 29L141.25 29L141.25 27.19L137.5 27.19L137.5 24.54L140.99 24.54L140.99 22.75L137.5 22.75L137.5 20.49L141.25 20.49L141.25 18.7L135.33 18.7L135.33 29ZM149.22 29L151.72 29L148.25 23.8L151.47 18.7L149.13 18.7L146.95 22.41L144.73 18.7L142.32 18.7L145.52 23.69L142.1 29L144.44 29L146.83 25.1L149.22 29ZM162.42 29L164.9 29L160.94 23.64L164.69 18.7L162.37 18.7L158.68 23.69L158.68 18.7L156.51 18.7L156.51 29L158.68 29L158.68 23.78L162.42 29ZM183.64 29L185.82 29L185.82 18.7L183.64 18.7L183.64 22.74L179.56 22.74L179.56 18.7L177.38 18.7L177.38 29L179.56 29L179.56 24.55L183.64 24.55L183.64 29ZM188.41 29L194.34 29L194.34 27.19L190.59 27.19L190.59 24.54L194.08 24.54L194.08 22.75L190.59 22.75L190.59 20.49L194.34 20.49L194.34 18.7L188.41 18.7L188.41 29ZM198.45 18.7L196.49 18.7L196.49 29L199.11 29L203.88 21.11L203.94 21.11Q203.92 21.21 203.9 21.53Q203.88 21.86 203.86 22.29Q203.84 22.72 203.82 23.19Q203.81 23.66 203.81 24.05L203.81 29L205.75 29L205.75 18.7L203.15 18.7L198.39 26.51L198.34 26.51Q198.36 26.4 198.37 26.09Q198.39 25.78 198.4 25.36Q198.42 24.93 198.43 24.48Q198.45 24.04 198.45 23.68L198.45 18.7ZM168.36 26.38Q167.74 25.45 167.74 23.83Q167.74 22.21 168.36 21.28Q168.52 21.04 168.74 20.86Q169.34 20.36 170.36 20.36Q171.39 20.36 171.99 20.87Q172.2 21.04 172.35 21.28Q172.96 22.21 172.96 23.83Q172.96 25.45 172.35 26.38Q172.2 26.62 171.99 26.79Q171.39 27.31 170.35 27.31Q169.36 27.31 168.76 26.83Q168.53 26.64 168.36 26.38ZM128.45 20.49L129.45 20.49Q130.43 20.49 130.86 20.98Q131.17 21.34 131.17 21.99Q131.17 22.6 130.87 22.97Q130.77 23.09 130.63 23.18Q130.09 23.55 129.17 23.55L128.45 23.55L128.45 20.49ZM117.49 26.89Q116.93 27.21 115.96 27.21L115.39 27.21L115.39 24.44L115.86 24.44Q116.9 24.44 117.47 24.7Q117.63 24.77 117.74 24.89Q118.04 25.19 118.04 25.78Q118.04 26.34 117.77 26.66Q117.65 26.8 117.49 26.89Z" fill="#595653" fill-opacity="1.000000" fill-rule="evenodd"/>
</svg>
