<svg width="223.412598" height="254.257324" viewBox="0 0 223.413 254.257" fill="none" xmlns="http://www.w3.org/2000/svg" xmlns:xlink="http://www.w3.org/1999/xlink">
	<desc>
			Created with Pixso.
	</desc>
	<defs/>
	<path id="Vector" d="M111.01 110.9L111.41 111.13L111.55 111.73L108.56 118.83C108.38 118.64 108.23 118.46 108.08 118.25C108.34 117.75 108.48 117.19 108.71 116.67L111.01 110.9Z" fill="#010000" fill-opacity="1.000000" fill-rule="nonzero"/>
	<path id="Vector" d="M122.93 86.7L123.56 86.62C123.16 91.51 121.08 95.93 117.33 99.15C117.13 99.31 116.99 99.41 116.75 99.52C115.37 99.06 113.95 98.31 112.71 97.53L112.86 97.26C114.06 97.61 115.36 98.4 116.51 98.93C116.79 98.77 117.02 98.6 117.26 98.4C120.33 95.77 122.61 90.66 122.93 86.7Z" fill="#010000" fill-opacity="1.000000" fill-rule="nonzero"/>
	<path id="Vector" d="M112.86 97.26L112.77 96.99L123 85.1L122.93 86.7C122.61 90.66 120.33 95.77 117.26 98.4C117.02 98.6 116.79 98.77 116.51 98.93C115.36 98.4 114.06 97.61 112.86 97.26Z" fill="#0C0C0C" fill-opacity="1.000000" fill-rule="nonzero"/>
	<path id="Vector" d="M111.01 110.9L113.32 105.27C114.13 103.39 114.92 100.87 116.69 99.71L117.1 99.41C120.99 101.43 123.17 106.66 124.41 110.65C125.07 112.78 125.27 114.84 125.05 117.06C124.5 116.42 124.12 115.4 123.7 114.65C122.61 112.73 121.54 111.08 120.75 109C120.68 110.49 120.74 112.94 119.74 114.12L119.58 114.32L119.48 114.45C119.98 116.38 121.51 118.07 121.72 120.14L119.8 116.07C118.98 118.89 117.95 122.01 116.5 124.57C116.33 124.88 116.08 125.48 115.79 125.68L115.74 125.53C115.05 123.78 114.17 122.16 113.53 120.38C113.38 119.96 113.52 119.62 113.63 119.21C113.88 118.3 114.79 116.23 114.6 115.34C114.48 114.81 113.73 113.91 113.46 113.36C112.93 112.29 112.45 111.16 112.08 110.03C111.93 110.61 111.79 111.18 111.55 111.73L111.41 111.13L111.01 110.9Z" fill="#0C0C0C" fill-opacity="1.000000" fill-rule="nonzero"/>
	<path id="Union" d="M97.0317 87.8737L112.719 97.5341L112.866 97.2632L112.775 96.9985L123.005 85.1046L122.937 86.7002L123.564 86.6227C123.567 86.489 123.566 86.3456 123.565 86.197C123.562 85.6775 123.558 85.0964 123.729 84.6619C123.995 83.9894 123.93 83.0533 123.873 82.2334C123.857 82.004 123.842 81.7837 123.835 81.5808L127.96 82.7162C130.115 83.137 132.658 83.073 134.517 81.7791C135.348 81.2001 136.056 80.2458 136.367 79.2819C136.534 78.7673 136.627 78.2139 136.684 77.6759C136.849 76.1071 136.747 74.4915 137.12 72.9456C137.557 71.1327 138.404 69.4263 138.738 67.5851L138.771 67.3878C138.865 66.8713 138.886 66.5331 138.766 66.0162L138.61 65.2709L138.61 65.2703C138.821 64.4011 138.911 63.5106 139.246 62.6722C139.567 61.8722 140.08 61.1005 140.323 60.2771C140.495 59.6918 140.486 59.0616 140.627 58.4681C141.082 56.5518 141.758 54.7882 141.893 52.7937C141.993 51.3137 141.818 49.781 141.602 48.3176C141.58 48.1724 141.525 47.9606 141.466 47.7323C141.36 47.3264 141.241 46.8682 141.273 46.6395C141.285 46.556 141.572 46.1763 141.633 46.0781C142.101 45.3303 142.279 44.9735 142.283 44.0579C141.522 43.7084 140.555 43.8567 139.728 43.7074C139.283 43.6268 138.699 43.6145 138.26 43.8165C138.699 43.6143 139.283 43.6267 139.728 43.7073C140.555 43.8566 141.523 43.7083 142.284 44.0577L142.465 43.8737C143.027 43.2035 143.938 41.5439 144.358 39.9399C144.51 38.5715 144.231 36.9589 143.954 35.3583C143.786 34.3896 143.619 33.4254 143.549 32.5225C144.352 31.9001 145.261 31.307 145.983 30.5944C147.566 29.03 148.712 26.5668 148.965 24.3632C149.225 22.0941 148.561 19.7357 147.103 17.9742C146.13 16.7992 145.106 16.2644 143.651 15.8684C143.569 15.8463 143.54 15.8462 143.526 15.8314C143.511 15.8141 143.518 15.7761 143.49 15.6569C144.481 12.4402 144.604 9.37939 143.002 6.30444C141.701 3.80835 139.721 3.08704 137.036 2.68066C136.304 4.30725 134.84 4.89575 133.492 4.97229C131.609 5.0791 129.426 4.19531 127.463 3.40063C126.814 3.13782 126.19 2.88489 125.608 2.68066C117.61 -0.126587 107.176 -2.32336 100.594 4.67432C100.036 5.2677 99.5166 5.92029 99.0706 6.60181C98.8508 6.93713 98.3218 8.05359 98.0186 8.24146C97.6843 8.44849 96.3997 8.46716 95.9387 8.56262C94.6155 8.83643 93.3972 9.39502 92.2261 10.0564C84.0256 14.6874 82.458 25.0193 82.7888 33.6339C83.155 43.163 86.7393 51.7246 91.3611 59.9187C92.1675 61.3479 93.0554 63.4185 94.2275 64.5436C94.6106 64.9111 95.0396 65.1273 95.5327 65.306C95.6892 65.844 95.6072 66.6079 95.5352 67.2786C95.51 67.5126 95.4861 67.7354 95.4741 67.9331C95.2661 71.323 94.9609 74.8038 94.302 78.1377L94.1694 78.145L93.9487 78.167L93.7993 78.1782C92.95 78.2587 92.1846 78.8113 91.6711 79.4722C91.2231 80.0481 90.8647 80.7399 90.9604 81.4896C91.302 84.1693 95.0205 86.4615 97.0317 87.8737ZM136.898 45.2203L136.703 45.1292L136.716 44.3003C136.73 44.0863 136.697 44.0408 136.611 43.9202C136.59 43.8899 136.565 43.8551 136.537 43.8116L136.536 43.812C136.565 43.8553 136.59 43.8901 136.611 43.9203C136.697 44.0409 136.73 44.0864 136.716 44.3004L136.702 45.1293L136.898 45.2206L136.898 45.2203ZM139.231 60.8158L138.364 61.0886L138.363 61.0887L139.231 60.8159L139.231 60.8158ZM138.125 61.1667L137.356 61.381L137.356 61.3811L138.125 61.1669L138.125 61.1669L138.125 61.1667Z" clip-rule="evenodd" fill="#0C0C0C" fill-opacity="1.000000" fill-rule="evenodd"/>
	<path id="Vector" d="M115.6 211.33L119.22 211.33C119.52 211.33 120.2 211.25 120.44 211.33C120.55 211.37 120.61 211.47 120.69 211.54L120.61 211.76L116.85 211.8C116.43 211.79 115.85 211.87 115.5 211.64L115.6 211.33Z" fill="#010000" fill-opacity="1.000000" fill-rule="nonzero"/>
	<path id="Vector" d="M113.04 204.05C113.91 204.67 114.91 204.5 115.95 204.51L120.34 204.54C120.03 204.78 119.47 204.68 119.08 204.68L115.22 204.69C115.31 204.95 115.33 204.92 115.55 205.06C114.79 205.08 113.93 205.01 113.2 205.26C112.98 205.61 113.02 205.79 113.02 206.2L112.9 206.06C112.83 205.75 112.79 205.62 112.89 205.31C113.03 204.9 113.02 204.48 113.04 204.05Z" fill="#161515" fill-opacity="1.000000" fill-rule="nonzero"/>
	<path id="Vector" d="M129.78 219.6L133.97 219.61C134.62 219.62 135.39 219.53 136.02 219.63L135.85 219.79L132.06 219.81L131.89 220.1C132.29 220.36 133.21 220.25 133.71 220.25L138.74 220.25C139.48 220.25 140.44 220.12 141.13 220.32C139.81 220.53 138.37 220.43 137.03 220.44L129.68 220.41L129.93 219.97L129.78 219.6Z" fill="#161515" fill-opacity="1.000000" fill-rule="nonzero"/>
	<path id="Vector" d="M133.99 195.55L137.82 195.49C139.13 195.85 140.82 195.65 142.19 195.64L142.14 195.83C141.69 196.03 141.19 195.93 140.72 196.02C139.92 196.16 138.9 196.04 138.08 196.03L131.92 195.98L131.88 195.83L131.26 195.79L131.18 195.64L133.83 195.57L133.99 195.55Z" fill="#010000" fill-opacity="1.000000" fill-rule="nonzero"/>
	<path id="Vector" d="M148.07 231.33L162.73 231.38C162.14 231.93 151 231.22 150.67 231.57C150.6 231.64 150.59 231.74 150.55 231.83C151.05 232.18 151.83 231.91 152.4 232.17L148.29 232.13C148.02 232.43 147.99 232.85 147.91 233.23C147.88 232.81 147.83 232.4 147.96 232C148.05 231.75 148.07 231.59 148.07 231.33Z" fill="#161515" fill-opacity="1.000000" fill-rule="nonzero"/>
	<path id="Vector" d="M120.05 208.33C120.64 208.32 121.64 208.17 122.19 208.28C122.62 208.32 123.06 208.27 123.42 208.51C123.37 208.57 123.16 208.77 123.15 208.85L114.53 208.85L114.46 208.69L113.17 208.65L113.31 208.47C113.85 208.34 114.37 208.43 114.93 208.46C115.7 208.49 119.66 208.69 120.05 208.33Z" fill="#010000" fill-opacity="1.000000" fill-rule="nonzero"/>
	<path id="Vector" d="M139.07 181.78L143.71 181.87C143.63 182.1 143.62 182.33 143.4 182.46L140.11 182.31C140.05 182.21 140.08 182.06 140.08 181.94C139.71 181.93 139.36 182.01 139.07 181.78Z" fill="#161515" fill-opacity="1.000000" fill-rule="nonzero"/>
	<path id="Vector" d="M129.58 240.78C129.77 241.06 129.92 241.35 130.07 241.65C130.18 241.87 130.15 241.74 130.06 242.04C128.07 242.67 125.38 242.36 123.3 242.36L113.76 242.35C111.41 242.33 108.74 242.54 106.42 242.22C105.92 242.15 105.79 242.12 105.51 241.72C105.57 241.29 105.58 241.19 105.9 240.89C106.12 240.66 106.69 240.26 106.99 240.15C107.18 240.09 107.71 240.16 107.93 240.17L110.28 240.19L128.41 240.17C128.78 240.21 129.26 240.58 129.58 240.78Z" fill="#FBFAFC" fill-opacity="1.000000" fill-rule="nonzero"/>
	<path id="Vector" d="M147.64 228.21L156.97 228.34C158.14 228.33 159.77 228.11 160.89 228.35L161.08 228.37C161.91 228.45 162.8 228.25 163.6 228.41L163.66 228.78C164.28 228.77 164.83 228.9 165.27 229.38C165.51 229.63 165.58 229.85 165.6 230.2C165.4 230.66 165.24 231 164.75 231.19C164.17 231.42 163.36 231.36 162.73 231.38L148.07 231.33C147.86 230.64 147.77 229.96 147.52 229.28C147.43 229.05 147.48 229.01 147.53 228.78L147.44 228.44L147.64 228.21Z" fill="#FFFFFF" fill-opacity="1.000000" fill-rule="nonzero"/>
	<path id="Vector" d="M147.64 228.21L156.97 228.34C158.14 228.33 159.77 228.11 160.89 228.35L161.08 228.37C161.91 228.45 162.8 228.25 163.6 228.41L163.66 228.78C160.62 229.24 157.22 228.99 154.14 228.99C152.09 228.99 149.51 229.24 147.53 228.78L147.44 228.44L147.64 228.21Z" fill="#010000" fill-opacity="1.000000" fill-rule="nonzero"/>
	<path id="Vector" d="M130.62 242.99L130.77 243.11C130.81 243.84 130.97 245.25 130.48 245.79C129.28 246.23 127.68 246.05 126.4 246.06L119.31 246.06C114.79 246.05 110.12 246.28 105.6 245.95L105.43 245.86C105.17 245.67 105.17 245.51 105.12 245.22C105.01 244.59 104.95 243.83 105.32 243.28C106.32 242.94 107.58 243.05 108.64 243.05L114.37 243.09L130.62 242.99Z" fill="#FFFFFF" fill-opacity="1.000000" fill-rule="nonzero"/>
	<path id="Vector" d="M113.15 229.99L122.57 230.03C123.69 230.03 125.05 229.85 126.14 230L126.2 230.19L126.39 230.69C126.55 231.11 126.63 231.39 127.02 231.64C128.87 232.08 131.19 231.87 133.11 231.88C133.62 231.89 134.37 231.79 134.84 231.9L134.96 231.95C135.25 232.05 135.39 232.1 135.71 232.11C135.63 232.26 135.67 232.26 135.51 232.32C135.12 232.48 134.58 232.4 134.17 232.4C132.95 232.41 131.53 232.26 130.35 232.48L130.54 232.5C132.21 232.66 133.93 232.6 135.61 232.61C136.26 232.62 137.13 232.52 137.75 232.7C137.86 233.26 138.17 234.12 137.97 234.64L136.96 234.6L137.4 234.94C136.99 235.1 136.57 235.13 136.14 235.18C137.26 235.27 138.55 235.22 139.55 235.78L139.58 236C139.28 236.14 139.01 236.18 138.68 236.24L138.49 236.49C138.66 236.9 138.75 236.89 139.16 237.05C139.5 237.18 139.87 237.24 140.23 237.3C140.42 237.72 140.33 238.29 140.31 238.75C139.67 239.11 138.61 238.89 137.86 238.96C137.45 239.29 131.51 239.1 130.49 239.1L130.27 238.96C130.28 238.64 130.34 238.48 130.41 238.19L130.37 237.3L130.35 237.43C130.17 238.3 129.64 238.94 128.9 239.41C128.59 239.61 128.36 239.67 128.01 239.74L128.54 239.84C128.78 239.89 128.85 240.01 129.04 240.12L129.24 240.2L129.31 239.71C129.85 239.32 136.97 239.53 138.11 239.53L138.18 239.6L136.6 239.63L136.53 239.76L131.56 239.79C131.11 239.79 130.26 239.68 129.84 239.8C129.72 239.83 129.65 239.95 129.55 240.02L129.7 240.67L129.58 240.78C129.26 240.58 128.78 240.21 128.41 240.17L110.28 240.19C109.79 240 109.24 239.97 108.71 239.9L108.66 239.74L112.93 239.73C113.4 239.73 114.51 239.86 114.82 239.55C117.97 239.37 121.2 239.5 124.36 239.51C125.55 239.51 126.98 239.66 128.15 239.42C129.07 239.23 129.62 238.34 130.08 237.59C129.35 235.78 127.82 235.02 126.44 233.81C125.49 232.98 125.55 232.01 125.45 230.83L114.24 230.76C113.86 230.63 113.49 230.6 113.1 230.56L113.15 229.99Z" fill="#010000" fill-opacity="1.000000" fill-rule="nonzero"/>
	<path id="Vector" d="M136.96 234.6L131.07 234.47C130.25 234.45 129 234.56 128.24 234.25C127.27 233.84 127 233.26 126.59 232.36L130.35 232.48L130.54 232.5C132.21 232.66 133.93 232.6 135.61 232.61C136.26 232.62 149.84 232.52 150.46 232.7C150.56 233.26 150.87 234.12 150.67 234.64L136.96 234.6Z" fill="#FFFFFF" fill-opacity="1.000000" fill-rule="nonzero"/>
	<path id="Vector" d="M132.22 238.87C131.7 238.87 131.06 238.95 130.58 238.75C130.65 238.5 130.69 238.23 130.7 237.97C130.73 236.81 129.71 235.84 128.95 235.09L136.14 235.18C141.67 235.18 144.84 235.23 151.43 235.23C152.41 236.89 152.65 238.96 148.26 238.96C142.91 238.96 137.57 238.95 132.22 238.87Z" fill="#FFFFFF" fill-opacity="1.000000" fill-rule="nonzero"/>
	<path id="Vector" d="M110.88 229.94L113.15 229.99L113.1 230.56C113.49 230.6 113.86 230.63 114.24 230.76L125.45 230.83C125.55 232.01 125.49 232.98 126.44 233.81C127.82 235.02 129.35 235.78 130.08 237.59C129.62 238.34 129.07 239.23 128.15 239.42C126.98 239.66 125.55 239.51 124.36 239.51C121.2 239.5 117.97 239.37 114.82 239.55C114.14 239.42 113.22 239.53 112.51 239.53L107.18 239.47C106.82 239.28 106.49 238.83 106.31 238.48C105.17 236.26 109.09 234.25 110.15 232.82C110.53 232.29 110.77 231.49 110.97 230.88L111.01 230.77C111 230.49 110.98 230.59 111.06 230.34L111.12 230.17L110.88 229.94Z" fill="#FFFFFF" fill-opacity="1.000000" fill-rule="nonzero"/>
	<path id="Vector" d="M110.88 229.94L113.15 229.99L113.1 230.56C113.49 230.6 113.86 230.63 114.24 230.76L111.01 230.77C111 230.49 110.98 230.59 111.06 230.34L111.12 230.17L110.88 229.94Z" fill="#161515" fill-opacity="1.000000" fill-rule="nonzero"/>
	<path id="Subtract" d="M80.6675 90.5872L82.6375 88.73L85.8958 85.2037C86.4907 84.5546 87.0803 83.8278 87.791 83.3025L89.896 81.9456L89.7852 82.152C89.228 83.2025 88.613 84.6522 88.4675 85.8314C88.0249 89.4236 89.2686 93.7166 90.3616 97.1359C90.6973 98.1877 91.0562 98.9937 91.7166 99.8864C95.4653 104.955 100.143 109.328 104.357 114.003L107.061 117.083C107.36 117.433 107.716 118.013 108.082 118.258C108.238 118.468 108.38 118.646 108.565 118.833L108.084 119.788L91.6252 101.862L96.6816 116.915C100.886 128.712 105.759 140.048 111.81 151.022C114.285 155.511 116.885 160.255 120.422 164.005C121.316 162.896 121.933 161.532 122.531 160.251L125.278 153.552C127.946 146.1 129.1 138.177 129.36 130.291C129.461 127.247 129.527 124.214 129.285 121.175C129.005 117.648 128.275 114.152 127.883 110.634L126.479 96.4661L125.573 90.1294C125.326 88.6865 124.996 87.432 124.944 85.9447C127.55 87.2924 129.53 89.5128 131.293 91.8304C132.143 92.9468 132.802 94.25 133.552 95.4371C136.598 100.258 139.275 105.286 142.566 109.955C141.42 111.726 139.62 113.292 138.166 114.824L135.697 117.275L138.134 118.897C139.063 119.463 146.243 123.49 146.366 123.751L146.051 127.029C146.185 126.803 146.299 126.551 146.495 126.374L146.495 126.375C146.3 126.551 146.185 126.804 146.052 127.029L141.378 152.404L139.727 159.892C139.222 162.004 138.493 164.238 138.305 166.404C138.908 165.451 139.178 164.232 139.51 163.156C140.602 159.621 141.41 156.019 142.223 152.412C142.693 150.326 143.198 148.281 143.507 146.168L146.676 127.491L146.676 127.49C147.055 126.24 147.166 124.704 147.292 123.406L136.452 117.295C137.086 116.489 137.785 115.815 138.542 115.125L143.544 110.193L131.992 92.0598L157.733 99.8864C159.859 100.976 162.433 101.877 164.248 103.43C165.377 104.397 165.966 105.95 166.479 107.298C169.367 114.895 171.393 122.871 173.618 130.681L182.901 163.525L187.913 181.624L189.996 189.444C190.148 190.009 190.307 190.576 190.466 191.145L190.466 191.145C191.338 194.264 192.23 197.45 192.15 200.686C192.023 205.828 189.867 210.643 188.026 215.356L183.67 225.875L178.418 236.891C178.894 240.808 178.418 244.957 175.74 247.658L223.413 248.029L223.397 254.22L0 254.257L0.150146 248.008L83.917 247.973L84.0205 244.053C83.54 243.775 82.4102 243.744 81.8323 243.628L78.9187 238.427L54.135 232.205C49.4387 231.111 44.5479 230.125 40.0332 228.425C36.8569 227.228 34.082 224.787 32.2751 221.936C30.0371 218.406 29.1506 214.409 29.0149 210.272C28.8845 206.291 29.3508 202.26 29.8306 198.316L31.7341 183.606L36.0254 152.06L40.271 125.029L41.8228 117.025C42.3596 114.682 42.9307 111.899 44.479 109.984C45.1917 109.103 46.2227 108.399 47.1255 107.723L53.4756 103.43L75.8687 93.4066C77.7544 92.4639 79.1548 91.9956 80.6675 90.5872ZM79.0461 92.1484L79.6333 91.7761L79.3833 117.611C81.3167 118.187 83.2004 119.088 85.0894 119.816C86.6489 120.416 88.3645 120.888 89.844 121.646L89.8442 121.646L90.1907 121.876L81.1841 128.704L81.1838 128.704L81.2043 128.915C81.2751 129.386 81.6565 129.827 81.9204 130.211L83.9031 133.079L88.4758 139.874L105.501 165.042L111.952 174.773C112.947 176.296 113.877 177.967 114.937 179.431C113.602 178.787 86.6548 138.517 83.5439 133.84L80.6069 129.594L80.6104 129.577L81.0129 129.419L81.0129 129.419L80.6104 129.577L79.99 128.979L79.9866 128.732C81.0361 127.698 82.4307 126.88 83.6328 126.028L89.4438 121.984C88.9497 121.61 88.3813 121.559 87.801 121.381L84.7751 120.352L78.6506 117.926C78.5083 117.277 78.467 116.544 78.467 115.793C78.467 115.263 78.4875 114.725 78.5076 114.201C78.5264 113.706 78.5447 113.224 78.5447 112.775L78.5447 112.735L78.7317 98.8431C78.7585 98.0372 78.8201 97.2249 78.8816 96.4122C78.9639 95.3264 79.0461 94.2401 79.0461 93.1678L79.0461 93.1249L79.0461 92.1484ZM68.3604 170.242L69.2756 160.552C69.3821 158.763 69.4373 156.966 69.4373 155.167C69.4373 149.168 68.8242 143.143 67.4558 137.322C66.8657 134.811 66.0129 132.362 65.3027 129.884C67.0571 133.092 68.1003 136.665 68.9016 140.217C69.6396 143.491 70.2021 146.72 70.4246 150.07C70.521 151.521 70.5647 152.966 70.5647 154.406C70.5647 160.254 69.8408 166.023 68.9622 171.842L68.9624 171.842L68.1365 177.068C67.7715 179.139 67.3462 181.115 67.3203 183.226L67.3206 183.227C67.4011 183.717 67.4375 184.26 67.4375 184.845C67.4375 187.632 66.6128 191.375 65.8269 194.941C65.1316 198.096 64.467 201.113 64.4312 203.207C64.4094 203.338 64.3987 203.459 64.3987 203.571C64.3987 204.717 65.5088 204.885 66.9194 205.098C67.7671 205.227 68.7236 205.371 69.6128 205.755C69.1284 206.024 68.7117 206.108 68.1753 205.967L63.5576 204.671C64.2229 202.094 64.5271 199.46 64.897 196.83L66.9451 180.977L66.9451 180.977C66.9211 180.864 66.9109 180.736 66.9109 180.598C66.9109 180.101 67.0437 179.467 67.1641 178.893C67.2351 178.554 67.3015 178.237 67.3335 177.982L68.3604 170.242L68.3604 170.242ZM134.958 168.513C135.097 168.478 135.133 168.462 135.171 168.459C135.194 168.458 135.217 168.463 135.266 168.472C135.295 168.477 135.333 168.484 135.385 168.493C135.716 168.548 135.57 168.536 135.838 168.553C136.701 168.607 137.139 169.113 137.794 169.631C137.509 170.289 137.302 170.78 137.302 171.458C137.302 171.555 137.306 171.657 137.315 171.763C137.646 172.054 138.499 172.007 139.134 171.972C139.302 171.962 139.455 171.954 139.579 171.953L139.568 174.478L137.218 174.394C137.217 174.469 137.217 174.545 137.217 174.621C137.217 174.789 137.219 174.96 137.22 175.132C137.222 175.307 137.224 175.482 137.224 175.658C137.224 176.194 137.208 176.731 137.127 177.237L136.703 177.342L134.324 177.21L134.533 174.534L132.115 174.505L132.047 171.804L134.567 172.002L134.51 171.41C134.464 170.776 134.43 170.352 134.123 169.779L134.048 169.644L134.13 169.361C134.394 169.305 134.618 169.234 134.865 169.127L134.958 168.513ZM134.819 178.093L134.903 178.091C135.781 178.066 136.611 178.042 137.48 178.219C137.849 178.525 138.007 179.127 138.183 179.57L135.944 179.681L132.584 179.75C133.32 179.197 133.987 178.492 134.819 178.093ZM139.073 181.781L132.575 181.798C132.238 181.804 131.899 181.814 131.558 181.824C130.194 181.865 128.808 181.906 127.473 181.686L127.375 181.471C128.166 180.787 128.958 180.804 129.934 180.629C132.63 180.146 135.567 179.91 138.312 180.06C139.175 180.108 139.909 180.511 140.731 180.695C141.779 180.929 142.822 180.896 143.84 181.3L143.957 181.587L143.717 181.872C143.633 182.104 143.624 182.333 143.405 182.462L140.112 182.318C140.084 182.268 140.077 182.207 140.077 182.144C140.077 182.108 140.079 182.072 140.082 182.037C140.083 182.005 140.086 181.974 140.086 181.945C140.006 181.943 139.927 181.946 139.848 181.948L139.847 181.948C139.567 181.956 139.299 181.964 139.073 181.781ZM140.112 182.319L143.405 182.462C141.698 185.062 140.48 188.301 139.762 191.307L134.26 191.304C134.054 191.298 133.841 191.298 133.625 191.297C133.005 191.294 132.36 191.292 131.781 191.168C130.936 188.024 129.503 185.116 127.834 182.337L140.112 182.319ZM118.508 185.615L118.571 185.589C118.986 185.524 119.27 185.523 119.639 185.709C119.66 185.812 119.669 185.917 119.669 186.023C119.669 186.442 119.524 186.88 119.388 187.29C119.347 187.414 119.307 187.535 119.271 187.653L121.126 187.909C121.177 188.143 121.207 188.423 121.207 188.708C121.207 189.156 121.133 189.616 120.944 189.928C120.542 190.044 120.147 190.002 119.741 189.959C119.672 189.951 119.601 189.944 119.531 189.937C119.324 190.037 119.268 190.255 119.268 190.522C119.268 190.679 119.287 190.852 119.307 191.03C119.327 191.215 119.348 191.404 119.348 191.582C119.348 191.825 119.309 192.047 119.177 192.21L117.799 192.231L116.987 192.204C116.862 192.018 116.825 191.68 116.825 191.308C116.825 190.993 116.852 190.654 116.875 190.364C116.888 190.19 116.901 190.033 116.905 189.91L114.696 189.819C114.693 189.765 114.69 189.707 114.687 189.648C114.676 189.454 114.664 189.237 114.664 189.018C114.664 188.561 114.716 188.094 114.937 187.812L116.408 187.954L116.404 185.65L118.508 185.615ZM153.625 186.886L154.369 186.82C154.823 186.837 155.298 187.163 155.558 187.522C155.698 187.717 155.766 187.935 155.766 188.164C155.766 188.229 155.76 188.295 155.75 188.361C155.669 188.849 155.339 189.219 154.956 189.501L154.856 189.572C155.607 190.145 156.71 190.246 157.525 190.911C158.529 191.733 158.982 193.137 159.047 194.396C159.049 194.441 159.05 194.486 159.05 194.532C159.05 195.581 158.461 196.967 157.742 197.709C157.167 198.304 156.226 198.27 155.465 198.311L151.37 198.328C151.042 198.031 150.702 197.728 150.435 197.372C149.729 196.43 149.382 195.344 149.382 194.211C149.382 193.846 149.418 193.476 149.49 193.105C149.709 191.966 151.089 190.473 152.108 189.916C152.457 189.725 152.815 189.657 153.153 189.431C152.875 188.883 152.762 188.602 152.762 188.108C152.762 187.996 152.768 187.874 152.779 187.734C153.028 187.276 153.171 187.144 153.625 186.886ZM132.49 191.687L139.388 191.641C139.897 191.667 140.198 191.748 140.551 192.116L140.377 192.35L139.363 192.426L133.734 192.516C133.544 192.516 133.341 192.522 133.133 192.528C132.474 192.547 131.758 192.568 131.18 192.409L131.058 192.116C131.477 191.718 131.937 191.739 132.49 191.687ZM117.628 192.799L118.085 192.781C119.16 192.785 119.858 192.876 120.59 193.726C120.845 194.02 120.922 194.193 120.922 194.471C120.922 194.566 120.913 194.673 120.899 194.801L125.86 195.457L124.129 199.467C123.589 200.587 122.987 201.623 122.638 202.824L118.647 202.856L113.914 202.905L110.169 195.451L113.228 195.018C113.553 194.969 114.151 194.963 114.438 194.842C114.503 194.815 114.776 194.444 114.827 194.384C115.116 194.043 115.667 193.211 116.045 193.03C116.433 192.844 117.188 192.85 117.628 192.799ZM130.762 192.964C131.74 192.907 132.701 192.932 133.666 192.958L133.667 192.958L133.667 192.958L133.667 192.958C134.252 192.973 134.839 192.989 135.431 192.986L138.895 192.884C138.983 192.881 139.072 192.877 139.162 192.874C139.822 192.846 140.531 192.816 141.084 193.166L141.084 193.621C140.902 193.696 140.778 193.714 140.579 193.718L133.299 193.755C133.18 193.755 133.025 193.76 132.848 193.766C132.174 193.788 131.197 193.821 130.837 193.591C130.726 193.519 130.644 193.41 130.546 193.319L130.762 192.964ZM133.996 195.557C133.696 195.518 133.153 195.522 132.542 195.528L132.542 195.528C131.33 195.538 129.855 195.551 129.496 195.225C129.602 194.833 129.648 194.571 129.989 194.311L137.267 194.182C137.558 194.18 137.857 194.172 138.161 194.164C139.21 194.136 140.308 194.106 141.29 194.342C141.439 194.554 141.559 194.773 141.79 194.904C141.927 194.982 142.051 195.048 142.181 195.14L142.159 195.367C141.32 195.651 140.055 195.589 138.95 195.535C138.542 195.515 138.155 195.496 137.82 195.495L133.996 195.557ZM131.922 195.981L138.081 196.039C138.323 196.041 138.58 196.052 138.844 196.064C139.483 196.093 140.158 196.123 140.727 196.024L142.509 196.144C143.155 196.562 143.762 197.229 144.116 197.911L143.954 198.193C143.041 198.551 141.685 198.51 140.502 198.474C140.11 198.462 139.738 198.451 139.406 198.455L131.067 198.369C130.841 198.359 130.604 198.356 130.363 198.353C129.515 198.341 128.607 198.328 127.857 198.052L127.747 197.77C127.825 197.534 127.908 197.379 128.083 197.2C128.311 196.967 129.06 196.096 129.32 196.01C129.725 195.877 130.504 195.918 131.165 195.953C131.454 195.969 131.72 195.983 131.922 195.981ZM152.656 198.882C152.838 198.874 153.089 198.856 153.382 198.836C154.7 198.742 156.875 198.588 157.497 199.015L157.541 199.607C157.194 199.918 156.73 199.915 156.264 199.912C156.135 199.911 156.006 199.911 155.879 199.916L150.695 199.945L150.591 199.748C151.273 199.041 151.689 198.972 152.656 198.882ZM129.782 219.605C129.77 219.549 129.758 219.504 129.748 219.466C129.732 219.408 129.72 219.365 129.72 219.32C129.72 219.26 129.741 219.197 129.804 219.091C130.715 217.544 130.94 215.271 131.221 213.513C131.971 208.819 132.35 204.154 132.694 199.416L138.829 199.312C138.974 202.295 140.216 217.541 141.611 219.14L142.161 219.394L142.131 219.571C140.89 219.729 139.569 219.694 138.261 219.659L138.261 219.659L138.26 219.659C137.506 219.639 136.756 219.619 136.027 219.636C135.595 219.57 135.096 219.587 134.617 219.604C134.396 219.612 134.181 219.62 133.978 219.619L129.782 219.605ZM150.859 200.405L155.866 200.409C155.995 200.41 156.134 200.408 156.28 200.407C157.053 200.398 158.016 200.387 158.609 200.739C158.614 200.794 158.62 200.844 158.625 200.89C158.636 200.989 158.646 201.068 158.646 201.143C158.646 201.277 158.616 201.396 158.518 201.585L158.009 201.655L152.391 201.602C152.279 201.599 152.152 201.599 152.016 201.599C151.411 201.597 150.626 201.596 150.201 201.349C150.093 201.286 150.052 201.268 150.032 201.237C150.01 201.201 150.016 201.146 149.978 200.983C150.294 200.591 150.401 200.572 150.859 200.405ZM149.997 202.129C151.217 202.043 152.467 202.063 153.707 202.084C154.205 202.092 154.702 202.1 155.194 202.101C155.529 202.102 155.878 202.094 156.236 202.085C157.396 202.057 158.635 202.028 159.687 202.304C160.517 202.522 160.703 203.112 161.125 203.788L158.95 203.935L150.726 203.917C150.526 203.916 150.281 203.927 150.017 203.938C149.32 203.968 148.49 204.004 148.009 203.851C147.908 203.819 147.853 203.707 147.774 203.635C147.807 203.336 147.838 203.156 148.015 202.902C148.439 202.29 149.325 202.203 149.997 202.129ZM113.04 204.055L113.106 203.656C114.113 203.208 115.722 203.269 117.075 203.32C117.485 203.335 117.871 203.35 118.21 203.349C118.575 203.349 118.962 203.336 119.36 203.323C120.558 203.283 121.849 203.24 122.908 203.517C123.01 203.69 123.042 203.795 123.042 203.911C123.042 203.98 123.031 204.053 123.017 204.147C123.01 204.196 123.001 204.25 122.993 204.312C122.633 204.586 121.58 204.564 120.846 204.549L120.846 204.549C120.647 204.545 120.472 204.541 120.34 204.544L115.954 204.517C115.766 204.515 115.578 204.519 115.393 204.523C114.556 204.541 113.756 204.558 113.04 204.055ZM149.836 218.195L151.826 204.778L156.838 204.784L158.208 213.811C158.487 215.25 158.733 216.829 159.316 218.174C159.655 218.369 159.975 218.412 160.353 218.474C160.637 218.589 160.537 218.492 160.662 218.758L160.305 218.947C158.289 218.821 156.261 218.893 154.239 218.964C153.637 218.985 153.035 219.007 152.434 219.023C152.24 219.028 151.988 219.046 151.706 219.066C150.799 219.132 149.587 219.219 149.034 218.965C148.909 218.907 148.833 218.78 148.732 218.687L148.858 218.417L149.836 218.195ZM115.552 205.065C116.16 205.074 116.803 205.063 117.463 205.052C119.295 205.021 121.251 204.987 122.894 205.37C123.006 205.531 123.041 205.648 123.041 205.769C123.041 205.853 123.024 205.938 123.003 206.042C122.991 206.104 122.978 206.172 122.966 206.25C122.881 206.322 122.817 206.433 122.711 206.466C122.526 206.523 122.177 206.509 121.896 206.498L121.895 206.498L121.895 206.498C121.792 206.494 121.697 206.49 121.623 206.491L118.188 206.337C117.58 206.327 116.958 206.349 116.333 206.372C115.344 206.408 114.349 206.445 113.396 206.352C113.204 206.333 113.237 206.317 113.023 206.2C113.024 206.175 113.024 206.152 113.024 206.129C113.024 206.093 113.024 206.059 113.023 206.026C113.023 205.997 113.023 205.968 113.023 205.941C113.023 205.696 113.039 205.529 113.206 205.26C113.773 205.068 114.426 205.069 115.048 205.069L115.049 205.069C115.22 205.069 115.388 205.069 115.552 205.065ZM69.2048 206.532C69.2241 206.526 69.2419 206.519 69.2585 206.513C69.3643 206.475 69.425 206.453 69.572 206.456C70.292 206.469 71.231 206.816 71.9524 206.966L84.4912 209.97C85.2883 210.201 86.9021 210.461 87.415 211.055C86.1357 211.555 71.3335 207.347 69.2048 206.532ZM120.054 208.335C119.811 208.332 119.373 208.333 118.82 208.334C116.488 208.341 112.108 208.353 111.626 208.016C111.602 207.861 111.578 207.802 111.578 207.76C111.578 207.754 111.579 207.748 111.58 207.742C111.588 207.702 111.624 207.667 111.714 207.552C112.147 207.001 113.012 207.027 113.654 206.984C115.784 206.84 117.927 206.892 120.06 206.944L120.303 206.95C120.544 206.955 120.802 206.952 121.065 206.948C121.671 206.939 122.309 206.93 122.852 207.035C123.2 207.103 123.583 207.289 123.834 207.541L123.928 207.663L123.809 207.945C123.266 208.112 122.759 208.224 122.195 208.289C121.811 208.207 121.207 208.255 120.677 208.296C120.448 208.314 120.232 208.331 120.054 208.335ZM123.159 208.858L123.679 208.893C124.388 208.992 125.226 209.684 125.637 210.237L125.638 210.238C125.797 210.451 125.86 210.537 125.86 210.698C125.86 210.76 125.851 210.832 125.834 210.927C125.304 211.145 124.741 211.145 124.176 211.145L124.175 211.145C124.063 211.145 123.952 211.145 123.84 211.146L120.637 211.167C119.708 211.169 118.76 211.188 117.804 211.206C115.022 211.262 112.169 211.318 109.498 210.954L110.356 209.864C110.594 209.607 111.064 209.136 111.385 209.011C111.97 208.784 112.988 208.815 113.814 208.84C114.083 208.849 114.331 208.856 114.537 208.854L123.159 208.858ZM91.2893 211.903C91.9685 211.679 93.3796 211.99 94.4294 212.221C94.7432 212.29 95.0247 212.352 95.2446 212.39C98.2798 212.921 101.372 213.337 104.369 214.047C101.863 215.38 100.293 217.464 98.9119 219.88C96.657 223.823 95.5217 228.879 95.5217 233.583C95.5217 234.599 95.575 235.599 95.6809 236.568C95.8689 238.284 96.3044 239.92 96.7451 241.583L96.5635 241.895L84.7754 240.372C83.4675 237.753 82.9536 234.72 82.9536 231.687C82.9536 229.408 83.2437 227.13 83.7051 225.027C84.7163 220.42 87.1682 214.547 91.2893 211.903ZM110.886 229.942C110.847 229.831 110.828 229.8 110.828 229.771L110.828 229.77C110.828 229.737 110.853 229.706 110.9 229.57L112.24 229.054C112.73 227.978 112.981 226.643 113.251 225.49C114.289 221.068 114.701 216.524 114.981 211.999L121.341 211.963C121.349 215.642 121.957 219.332 122.629 222.941C123.042 225.15 123.359 227.778 124.715 229.611L124.812 229.503C125.092 227.093 127.295 225.568 128.517 223.629C129.173 222.586 129.458 221.617 129.686 220.415L137.035 220.442C137.371 220.441 137.713 220.446 138.058 220.451L138.062 220.451C139.092 220.467 140.148 220.482 141.138 220.329L141.717 220.383C141.958 220.791 141.903 221.334 142.005 221.796C142.12 222.322 142.356 222.874 142.597 223.353C143.032 224.216 143.925 225.349 144.596 226.057C145.182 226.675 145.809 227.117 146.336 227.808C147.025 228.978 147.299 229.815 147.299 230.413C147.299 231.911 145.579 231.911 144.358 231.911L137.499 231.911C136.565 231.91 135.585 231.949 134.587 231.988C132.016 232.088 129.328 232.193 127.021 231.648C126.634 231.392 126.552 231.114 126.396 230.699L126.207 230.193L126.14 230.004C125.424 229.903 124.584 229.948 123.776 229.991C123.361 230.013 122.955 230.035 122.578 230.036L113.15 229.995L110.886 229.942ZM147.649 228.213C146.876 227.792 146.215 227.043 145.607 226.411C145.238 226.029 145.152 225.94 145.1 225.401C145.724 223.666 147.956 222.97 148.732 221.346C149.006 220.774 149.03 220.069 149.089 219.446L160.115 219.447C160.187 220.583 160.265 221.56 161.149 222.367C162.343 223.456 164.78 224.306 164.84 226.227C164.841 226.24 164.841 226.253 164.841 226.266C164.841 226.828 164.483 227.477 164.16 227.909C163.521 228.205 162.811 228.23 162.103 228.256C161.696 228.27 161.29 228.285 160.898 228.351C160.124 228.189 159.108 228.244 158.168 228.295L158.167 228.295C157.744 228.318 157.336 228.34 156.973 228.341L147.649 228.213Z" clip-rule="evenodd" fill="#0C0C0C" fill-opacity="1.000000" fill-rule="evenodd"/>
	<path id="Vector" d="M91.22 236.07C91.39 236.01 91.41 235.99 91.61 235.97C92.04 235.93 92.58 236.19 92.87 236.49C93.19 236.83 93.28 237.23 93.24 237.69C93.19 238.18 92.89 238.45 92.53 238.75L92.36 238.8C91.92 238.89 91.54 238.82 91.19 238.52C90.79 238.18 90.67 237.68 90.58 237.2C90.69 236.65 90.83 236.45 91.22 236.07Z" fill="#010000" fill-opacity="1.000000" fill-rule="nonzero"/>
	<path id="Vector" d="M86.89 235.78C87.04 235.71 87.05 235.7 87.24 235.66C87.65 235.58 88.24 235.78 88.54 236.07C88.88 236.38 89.02 236.81 88.98 237.27C88.94 237.76 88.71 238.09 88.36 238.42L88.16 238.49C87.78 238.62 87.27 238.59 86.94 238.36C86.63 238.16 86.36 237.77 86.3 237.41C86.2 236.79 86.53 236.26 86.89 235.78Z" fill="#010000" fill-opacity="1.000000" fill-rule="nonzero"/>
</svg>
