<svg width="293.000000" height="333.451965" viewBox="0 0 293 333.452" fill="none" xmlns="http://www.w3.org/2000/svg" xmlns:xlink="http://www.w3.org/1999/xlink">
	<desc>
			Created with Pixso.
	</desc>
	<defs/>
	<path id="Vector" d="M145.59 145.45L146.11 145.74L146.3 146.53L142.38 155.84C142.13 155.6 141.95 155.36 141.74 155.09C142.09 154.43 142.27 153.69 142.57 153.01L145.59 145.45Z" fill="#010000" fill-opacity="1.000000" fill-rule="nonzero"/>
	<path id="Vector" d="M161.22 113.7L162.05 113.6C161.52 120.01 158.79 125.82 153.87 130.03C153.62 130.25 153.43 130.38 153.12 130.53C151.3 129.91 149.45 128.94 147.82 127.91L148.02 127.55C149.59 128.02 151.29 129.05 152.8 129.75C153.16 129.54 153.47 129.32 153.79 129.05C157.81 125.6 160.81 118.9 161.22 113.7Z" fill="#010000" fill-opacity="1.000000" fill-rule="nonzero"/>
	<path id="Vector" d="M148.02 127.55L147.9 127.21L161.31 111.61L161.22 113.7C160.81 118.9 157.81 125.6 153.79 129.04C153.47 129.32 153.16 129.54 152.8 129.75C151.29 129.05 149.59 128.02 148.02 127.55Z" fill="#0C0C0C" fill-opacity="1.000000" fill-rule="nonzero"/>
	<path id="Vector" d="M145.59 145.45L148.62 138.06C149.68 135.59 150.71 132.28 153.03 130.77L153.58 130.37C158.67 133.03 161.54 139.89 163.16 145.12C164.03 147.91 164.29 150.61 164 153.52C163.27 152.68 162.78 151.34 162.22 150.36C160.81 147.84 159.4 145.67 158.36 142.96C158.27 144.91 158.35 148.12 157.03 149.67L156.83 149.92L156.69 150.1C157.35 152.63 159.36 154.85 159.63 157.56L157.11 152.22C156.04 155.93 154.69 160.01 152.79 163.38C152.56 163.78 152.24 164.57 151.86 164.83L151.79 164.63C150.89 162.34 149.73 160.21 148.89 157.88C148.69 157.33 148.88 156.88 149.02 156.34C149.35 155.15 150.54 152.43 150.29 151.27C150.14 150.58 149.15 149.39 148.8 148.66C148.11 147.26 147.48 145.79 147 144.3C146.79 145.06 146.61 145.81 146.3 146.53L146.11 145.74L145.59 145.45Z" fill="#0C0C0C" fill-opacity="1.000000" fill-rule="nonzero"/>
	<path id="Union" d="M127.255 115.244L147.829 127.913L148.021 127.558L147.902 127.211L161.319 111.612L161.229 113.705L162.052 113.603C162.056 113.428 162.055 113.24 162.053 113.045C162.049 112.364 162.043 111.602 162.268 111.032C162.617 110.15 162.532 108.922 162.457 107.847C162.436 107.546 162.416 107.257 162.406 106.991L167.817 108.48C170.642 109.032 173.979 108.948 176.416 107.251C177.506 106.492 178.435 105.24 178.842 103.976C179.061 103.301 179.184 102.575 179.257 101.87C179.474 99.8123 179.34 97.6934 179.83 95.666C180.403 93.2885 181.514 91.0505 181.951 88.6358L181.995 88.3771C182.118 87.6999 182.146 87.2562 181.988 86.5783L181.783 85.6008L181.783 85.5999C182.06 84.4601 182.179 83.2921 182.618 82.1926C183.038 81.1434 183.712 80.1313 184.03 79.0514C184.256 78.2838 184.244 77.4574 184.429 76.679C185.025 74.1657 185.913 71.8528 186.089 69.2371C186.221 67.2961 185.991 65.2861 185.707 63.3669C185.679 63.1764 185.607 62.8987 185.529 62.5993C185.391 62.0668 185.234 61.466 185.277 61.1661C185.292 61.0566 185.668 60.5585 185.749 60.4299C186.362 59.4492 186.596 58.9812 186.602 57.7803C186.381 57.6791 186.148 57.6098 185.906 57.561C186.148 57.6097 186.382 57.6791 186.602 57.7803L186.839 57.5389C187.577 56.66 188.771 54.4835 189.322 52.3799C189.522 50.5854 189.156 48.4703 188.792 46.3712C188.572 45.1008 188.353 43.8362 188.261 42.6521C189.315 41.8359 190.507 41.0581 191.453 40.1235C193.529 38.0718 195.033 34.8413 195.364 31.9514C195.705 28.9755 194.834 25.8825 192.922 23.5725C191.646 22.0315 190.304 21.3301 188.395 20.8108C188.288 20.7817 188.249 20.7816 188.232 20.7623C188.211 20.7394 188.221 20.6896 188.184 20.5332C189.484 16.3146 189.644 12.3006 187.543 8.26788C185.837 4.9942 183.241 4.04816 179.72 3.51526C178.76 5.64856 176.839 6.42035 175.071 6.52069C172.602 6.66083 169.739 5.50177 167.165 4.45947C166.314 4.11493 165.495 3.78314 164.732 3.51526C154.243 -0.166382 140.559 -3.04736 131.927 6.13C131.195 6.9082 130.514 7.76404 129.929 8.65778C129.641 9.0976 128.947 10.5618 128.549 10.8081C128.111 11.0797 126.426 11.1041 125.822 11.2293C124.086 11.5885 122.488 12.3209 120.953 13.1884C110.198 19.2618 108.142 32.8118 108.576 44.1097C109.056 56.6069 113.757 67.8352 119.818 78.5815C120.876 80.4559 122.04 83.1714 123.577 84.647C124.08 85.129 124.642 85.4126 125.289 85.6469C125.494 86.3525 125.387 87.3544 125.292 88.2339C125.259 88.5408 125.228 88.8329 125.212 89.0922C124.939 93.5381 124.539 98.103 123.675 102.475L123.501 102.485L123.212 102.514L123.016 102.528C121.902 102.634 120.898 103.359 120.225 104.226C119.637 104.981 119.167 105.888 119.293 106.871C119.741 110.386 124.617 113.392 127.255 115.244ZM179.065 57.4579C179.102 57.5147 179.134 57.5603 179.162 57.5999C179.275 57.758 179.318 57.8178 179.3 58.0984L179.282 59.1854L179.539 59.3051L179.539 59.305L179.282 59.1854L179.3 58.0984C179.318 57.8179 179.275 57.758 179.163 57.5999C179.134 57.5603 179.102 57.5145 179.065 57.4576L179.065 57.4579ZM183.25 57.3206L183.25 57.3206L183.25 57.3206Z" clip-rule="evenodd" fill="#0C0C0C" fill-opacity="1.000000" fill-rule="evenodd"/>
	<path id="Vector" d="M151.61 277.16L156.36 277.16C156.74 277.16 157.64 277.05 157.96 277.16C158.09 277.2 158.17 277.34 158.28 277.43L158.18 277.72L153.25 277.77C152.7 277.76 151.94 277.87 151.47 277.56L151.61 277.16Z" fill="#010000" fill-opacity="1.000000" fill-rule="nonzero"/>
	<path id="Vector" d="M148.24 267.61C149.39 268.41 150.7 268.2 152.07 268.21L157.82 268.25C157.42 268.57 156.69 268.44 156.17 268.44L151.11 268.45C151.23 268.79 151.25 268.75 151.54 268.93C150.54 268.96 149.41 268.87 148.46 269.19C148.17 269.65 148.23 269.88 148.22 270.42L148.06 270.24C147.97 269.83 147.92 269.67 148.05 269.26C148.24 268.72 148.23 268.18 148.24 267.61Z" fill="#161515" fill-opacity="1.000000" fill-rule="nonzero"/>
	<path id="Vector" d="M170.2 288L175.7 288.02C176.55 288.02 177.57 287.92 178.39 288.04L178.16 288.25L173.2 288.28L172.98 288.65C173.5 289 174.71 288.85 175.36 288.85L181.96 288.86C182.92 288.85 184.19 288.69 185.1 288.95C183.36 289.22 181.47 289.09 179.71 289.1L170.08 289.06L170.41 288.49L170.2 288Z" fill="#161515" fill-opacity="1.000000" fill-rule="nonzero"/>
	<path id="Vector" d="M175.73 256.46L180.74 256.38C182.47 256.86 184.69 256.59 186.48 256.58L186.41 256.83C185.83 257.09 185.17 256.96 184.56 257.08C183.5 257.26 182.17 257.1 181.09 257.1L173.01 257.02L172.96 256.83L172.14 256.77L172.05 256.58L175.51 256.49L175.73 256.46Z" fill="#010000" fill-opacity="1.000000" fill-rule="nonzero"/>
	<path id="Vector" d="M194.2 303.38L213.42 303.45C212.64 304.18 198.04 303.24 197.6 303.7C197.51 303.79 197.5 303.92 197.44 304.04C198.1 304.5 199.12 304.14 199.87 304.49L194.48 304.43C194.13 304.83 194.09 305.38 193.99 305.88C193.95 305.33 193.88 304.79 194.05 304.26C194.16 303.93 194.19 303.73 194.2 303.38Z" fill="#161515" fill-opacity="1.000000" fill-rule="nonzero"/>
	<path id="Vector" d="M157.44 273.22C158.21 273.2 159.53 273.01 160.25 273.16C160.82 273.2 161.39 273.14 161.87 273.45C161.8 273.54 161.52 273.8 161.52 273.91L150.21 273.9L150.12 273.69L148.42 273.64L148.6 273.4C149.32 273.24 150 273.36 150.72 273.39C151.74 273.43 156.93 273.7 157.44 273.22Z" fill="#010000" fill-opacity="1.000000" fill-rule="nonzero"/>
	<path id="Vector" d="M182.39 238.4L188.48 238.52C188.37 238.82 188.35 239.12 188.07 239.29L183.75 239.1C183.67 238.96 183.71 238.77 183.71 238.61C183.23 238.6 182.77 238.7 182.39 238.4Z" fill="#161515" fill-opacity="1.000000" fill-rule="nonzero"/>
	<path id="Vector" d="M169.94 315.78C170.2 316.14 170.38 316.52 170.58 316.91C170.73 317.21 170.7 317.04 170.57 317.43C167.96 318.26 164.43 317.85 161.71 317.85L149.2 317.83C146.11 317.81 142.61 318.09 139.56 317.66C138.92 317.57 138.74 317.54 138.37 317.01C138.46 316.45 138.47 316.32 138.88 315.92C139.18 315.62 139.92 315.09 140.32 314.96C140.57 314.87 141.27 314.97 141.55 314.97L144.64 315.01L168.41 314.98C168.89 315.03 169.52 315.52 169.94 315.78Z" fill="#FBFAFC" fill-opacity="1.000000" fill-rule="nonzero"/>
	<path id="Vector" d="M193.63 299.29L205.86 299.46C207.4 299.45 209.54 299.16 211.01 299.47L211.25 299.5C212.34 299.61 213.51 299.35 214.56 299.55L214.63 300.04C215.45 300.03 216.18 300.2 216.75 300.82C217.07 301.15 217.16 301.45 217.18 301.9C216.92 302.51 216.71 302.96 216.07 303.21C215.3 303.51 214.24 303.43 213.42 303.45L194.2 303.38C193.92 302.48 193.8 301.59 193.47 300.69C193.36 300.39 193.42 300.34 193.49 300.04L193.37 299.59L193.63 299.29Z" fill="#FFFFFF" fill-opacity="1.000000" fill-rule="nonzero"/>
	<path id="Vector" d="M193.63 299.29L205.86 299.46C207.4 299.45 209.54 299.16 211.01 299.47L211.25 299.5C212.34 299.61 213.51 299.35 214.56 299.55L214.63 300.04C210.64 300.65 206.2 300.32 202.16 300.31C199.47 300.31 196.08 300.64 193.49 300.04L193.37 299.59L193.63 299.29Z" fill="#010000" fill-opacity="1.000000" fill-rule="nonzero"/>
	<path id="Vector" d="M171.3 318.68L171.51 318.84C171.55 319.79 171.77 321.64 171.12 322.35C169.55 322.92 167.45 322.69 165.78 322.7L156.48 322.7C150.54 322.69 144.42 322.99 138.5 322.56L138.27 322.44C137.94 322.2 137.93 321.98 137.86 321.59C137.72 320.78 137.63 319.77 138.13 319.06C139.43 318.61 141.09 318.75 142.48 318.76L150 318.81L171.3 318.68Z" fill="#FFFFFF" fill-opacity="1.000000" fill-rule="nonzero"/>
	<path id="Vector" d="M148.39 301.63L160.75 301.68C162.21 301.68 164 301.44 165.42 301.64L165.51 301.89L165.76 302.55C165.97 303.1 166.07 303.46 166.58 303.8C169.02 304.37 172.05 304.09 174.57 304.11C175.24 304.12 176.23 303.99 176.84 304.14L176.99 304.2C177.37 304.33 177.57 304.4 177.98 304.41C177.88 304.6 177.93 304.6 177.72 304.69C177.21 304.89 176.5 304.79 175.96 304.79C174.37 304.8 172.5 304.61 170.95 304.89L171.2 304.92C173.39 305.13 175.65 305.05 177.85 305.07C178.7 305.08 179.85 304.95 180.66 305.18C180.8 305.91 181.21 307.05 180.95 307.72L179.63 307.67L180.2 308.12C179.66 308.32 179.11 308.37 178.54 308.44C180.01 308.54 181.71 308.48 183.02 309.23L183.06 309.5C182.66 309.69 182.3 309.75 181.87 309.83L181.63 310.15C181.85 310.68 181.96 310.67 182.51 310.88C182.96 311.06 183.43 311.13 183.91 311.21C184.16 311.76 184.04 312.52 184.01 313.12C183.18 313.59 181.78 313.3 180.8 313.39C180.26 313.83 172.48 313.57 171.13 313.57L170.84 313.4C170.86 312.98 170.94 312.77 171.03 312.38L170.98 311.22L170.95 311.39C170.72 312.53 170.02 313.37 169.05 313.98C168.64 314.24 168.34 314.33 167.88 314.42L168.57 314.54C168.89 314.6 168.98 314.76 169.24 314.91L169.5 315.02L169.59 314.37C170.3 313.86 179.63 314.14 181.13 314.14L181.22 314.24L179.15 314.27L179.05 314.44L172.54 314.48C171.95 314.49 170.83 314.34 170.29 314.49C170.13 314.53 170.03 314.69 169.9 314.79L170.1 315.64L169.94 315.78C169.52 315.52 168.89 315.03 168.41 314.98L144.64 315.01C143.99 314.76 143.26 314.72 142.58 314.62L142.51 314.41L148.11 314.4C148.72 314.4 150.18 314.57 150.58 314.17C154.72 313.93 158.95 314.1 163.09 314.11C164.65 314.11 166.53 314.31 168.06 314C169.27 313.75 170 312.57 170.6 311.6C169.63 309.23 167.64 308.23 165.82 306.63C164.58 305.55 164.66 304.27 164.53 302.74L149.82 302.63C149.33 302.46 148.84 302.43 148.32 302.37L148.39 301.63Z" fill="#010000" fill-opacity="1.000000" fill-rule="nonzero"/>
	<path id="Vector" d="M179.63 307.67L171.89 307.5C170.82 307.48 169.18 307.63 168.18 307.21C166.91 306.68 166.55 305.92 166.01 304.73L170.95 304.89L171.2 304.92C173.39 305.13 175.65 305.05 177.85 305.07C178.7 305.08 196.51 304.95 197.32 305.18C197.46 305.91 197.87 307.05 197.6 307.72L179.63 307.67Z" fill="#FFFFFF" fill-opacity="1.000000" fill-rule="nonzero"/>
	<path id="Vector" d="M173.41 313.27C172.72 313.27 171.88 313.38 171.25 313.12C171.34 312.78 171.4 312.44 171.41 312.09C171.46 310.58 170.11 309.3 169.12 308.31L178.54 308.44C185.8 308.44 189.96 308.5 198.6 308.5C199.88 310.68 200.2 313.39 194.44 313.39C187.43 313.39 180.42 313.38 173.41 313.27Z" fill="#FFFFFF" fill-opacity="1.000000" fill-rule="nonzero"/>
	<path id="Vector" d="M145.42 301.56L148.39 301.63L148.32 302.37C148.84 302.43 149.33 302.46 149.82 302.63L164.53 302.74C164.66 304.27 164.58 305.55 165.82 306.63C167.64 308.23 169.63 309.23 170.6 311.6C170 312.57 169.27 313.75 168.06 314C166.53 314.31 164.65 314.11 163.09 314.11C158.95 314.1 154.72 313.93 150.58 314.17C149.69 314 148.49 314.14 147.55 314.13L140.56 314.06C140.1 313.81 139.66 313.22 139.43 312.76C137.93 309.85 143.07 307.22 144.46 305.33C144.96 304.65 145.28 303.6 145.54 302.79L145.58 302.64C145.57 302.28 145.54 302.41 145.65 302.08L145.73 301.86L145.42 301.56Z" fill="#FFFFFF" fill-opacity="1.000000" fill-rule="nonzero"/>
	<path id="Vector" d="M145.42 301.56L148.39 301.63L148.32 302.37C148.84 302.43 149.33 302.46 149.82 302.63L145.58 302.64C145.57 302.28 145.54 302.41 145.65 302.08L145.73 301.86L145.42 301.56Z" fill="#161515" fill-opacity="1.000000" fill-rule="nonzero"/>
	<path id="Subtract" d="M105.793 118.803L108.377 116.367L112.65 111.742C113.431 110.891 114.204 109.938 115.136 109.249L117.896 107.469L117.751 107.74C117.021 109.118 116.214 111.019 116.023 112.565C115.443 117.276 117.074 122.907 118.507 127.391C118.947 128.77 119.418 129.827 120.284 130.998C125.2 137.646 131.334 143.38 136.862 149.512L140.408 153.552C140.8 154.01 141.266 154.77 141.747 155.092C141.951 155.368 142.138 155.601 142.38 155.846L141.749 157.099L120.164 133.589L126.796 153.331C132.309 168.803 138.701 183.669 146.635 198.061C149.882 203.948 153.292 210.169 157.931 215.088C159.102 213.634 159.912 211.845 160.696 210.164L164.299 201.379C167.798 191.606 169.311 181.215 169.653 170.873C169.785 166.881 169.871 162.903 169.554 158.918C169.187 154.292 168.229 149.707 167.715 145.094L165.875 126.513L164.685 118.202C164.362 116.31 163.929 114.665 163.861 112.714C167.279 114.482 169.876 117.394 172.188 120.433C173.302 121.897 174.167 123.606 175.151 125.163C179.145 131.486 182.656 138.08 186.972 144.203C185.469 146.526 183.108 148.579 181.201 150.589L181.695 150.983L188.254 144.515L173.105 120.734L206.863 130.998C209.652 132.427 213.027 133.609 215.407 135.646C216.887 136.913 217.661 138.95 218.333 140.718C222.121 150.681 224.778 161.142 227.696 171.385L239.87 214.459L246.443 238.195L249.176 248.451C249.375 249.192 249.583 249.935 249.791 250.681C250.936 254.772 252.104 258.951 252 263.194C251.834 269.938 249.005 276.253 246.592 282.434L240.879 296.229L233.991 310.676C234.615 315.814 233.991 321.255 230.479 324.798L293 325.284L292.98 333.403L0 333.452L0.197052 325.256L110.055 325.211L110.191 320.069C109.561 319.704 108.079 319.664 107.321 319.512L103.5 312.69L70.9967 304.53C64.8377 303.096 58.4234 301.803 52.5026 299.573C48.3371 298.004 44.6978 294.803 42.3279 291.063C39.3928 286.433 38.2303 281.192 38.0523 275.766C37.8814 270.546 38.4928 265.259 39.122 260.086L41.6187 240.795L47.2463 199.423L52.8143 163.973L54.8494 153.475C55.5536 150.402 56.3026 146.753 58.3331 144.241C59.2678 143.085 60.6198 142.162 61.804 141.275L70.1318 135.646L99.5 122.5C101.973 121.264 103.81 120.65 105.793 118.803ZM103.667 120.85L104.437 120.362L104.109 154.243C106.645 155 109.115 156.181 111.593 157.135C113.638 157.922 115.888 158.542 117.828 159.536L118.283 159.838L106.471 168.792L106.471 168.793L106.498 169.069C106.59 169.686 107.09 170.265 107.437 170.769L110.037 174.529L116.034 183.441L138.363 216.448L146.822 229.211C148.128 231.208 149.347 233.399 150.737 235.319C148.987 234.475 113.646 181.662 109.566 175.528L105.714 169.959L105.718 169.937L106.247 169.73L106.247 169.73L105.719 169.937L104.905 169.153L104.901 168.829C106.277 167.473 108.106 166.401 109.682 165.283L117.303 159.979C116.656 159.489 115.91 159.421 115.149 159.188L111.181 157.839L103.148 154.656C102.962 153.806 102.908 152.845 102.908 151.86C102.908 151.165 102.935 150.458 102.961 149.772C102.986 149.122 103.01 148.49 103.01 147.901L103.01 147.85L103.255 129.63C103.29 128.573 103.371 127.508 103.451 126.442C103.559 125.018 103.667 123.593 103.667 122.187C103.667 122.168 103.667 122.15 103.667 122.131L103.667 120.85ZM191.543 166.595L191.956 162.297C191.794 161.954 182.378 156.672 181.159 155.931L177.963 153.804L181.201 150.589L181.695 150.983C180.702 151.888 179.785 152.772 178.953 153.83L193.169 161.843C193.005 163.547 192.86 165.56 192.362 167.201L192.362 167.202L188.205 191.695C187.801 194.467 187.138 197.149 186.522 199.884C185.456 204.615 184.396 209.339 182.964 213.975C182.528 215.386 182.175 216.985 181.384 218.234C181.63 215.394 182.587 212.465 183.248 209.694L185.414 199.874L191.543 166.596C191.718 166.3 191.868 165.969 192.124 165.737L192.124 165.737C191.868 165.969 191.718 166.3 191.543 166.595ZM89.653 223.268L90.8533 210.559C90.993 208.214 91.0654 205.857 91.0654 203.497C91.0654 195.63 90.2612 187.728 88.4668 180.094C87.6928 176.801 86.5745 173.59 85.6431 170.34C87.9438 174.547 89.3118 179.232 90.3629 183.891C91.3309 188.185 92.0683 192.419 92.3602 196.813C92.4864 198.716 92.5439 200.611 92.5439 202.499C92.5439 210.169 91.5945 217.735 90.4423 225.367L90.4425 225.367L89.3594 232.221C88.8806 234.936 88.323 237.528 88.289 240.297L88.2892 240.297C88.3949 240.94 88.4425 241.652 88.4425 242.419C88.4425 246.075 87.3609 250.983 86.3305 255.66C85.4186 259.798 84.5468 263.754 84.5 266.5C84.4713 266.672 84.4574 266.831 84.4574 266.978C84.4574 268.481 85.9132 268.701 87.763 268.981C88.875 269.149 90.1293 269.339 91.2954 269.842C90.6603 270.195 90.1136 270.306 89.4101 270.121L83.3542 268.421C84.2268 265.041 84.6256 261.587 85.1108 258.138L87.7969 237.347L87.7968 237.347C87.7654 237.199 87.7518 237.031 87.7518 236.849C87.7518 236.198 87.9263 235.366 88.084 234.614C88.1771 234.17 88.2644 233.754 88.3063 233.419L89.6531 223.269L89.653 223.268ZM176.993 221.001C177.176 220.955 177.224 220.933 177.273 220.931C177.303 220.929 177.334 220.935 177.398 220.947C177.436 220.954 177.486 220.963 177.555 220.975C177.988 221.047 177.797 221.031 178.148 221.053C179.28 221.124 179.855 221.788 180.713 222.467C180.339 223.33 180.068 223.973 180.068 224.862C180.068 224.991 180.074 225.124 180.085 225.264C180.519 225.645 181.638 225.583 182.471 225.537C182.691 225.525 182.892 225.514 183.055 225.512L183.04 228.824L179.958 228.714C179.957 228.812 179.957 228.911 179.957 229.011C179.957 229.232 179.959 229.456 179.961 229.682C179.963 229.911 179.965 230.141 179.965 230.371C179.965 231.074 179.944 231.778 179.838 232.442L179.282 232.579L176.163 232.407L176.437 228.897L173.266 228.859L173.177 225.317L176.481 225.576L176.406 224.8C176.346 223.968 176.301 223.412 175.899 222.661L175.801 222.483L175.908 222.113C176.255 222.039 176.548 221.947 176.872 221.806L176.993 221.001ZM176.812 233.565L176.922 233.561C178.073 233.528 179.162 233.497 180.302 233.73C180.785 234.131 180.993 234.921 181.223 235.501L178.287 235.647L173.881 235.737C174.846 235.012 175.72 234.088 176.812 233.565ZM182.391 238.402L173.868 238.424C173.427 238.432 172.982 238.445 172.535 238.458C170.746 238.511 168.928 238.565 167.178 238.277L167.049 237.995C168.086 237.098 169.126 237.119 170.405 236.89C173.941 236.256 177.793 235.948 181.393 236.144C182.524 236.207 183.487 236.736 184.565 236.977C185.94 237.283 187.307 237.24 188.643 237.77L188.796 238.146L188.481 238.52C188.371 238.825 188.36 239.126 188.072 239.294L183.754 239.106C183.717 239.04 183.707 238.96 183.707 238.878C183.707 238.831 183.71 238.783 183.713 238.737C183.716 238.695 183.719 238.655 183.719 238.617C183.614 238.614 183.51 238.617 183.407 238.62L183.406 238.62C183.038 238.631 182.687 238.642 182.391 238.402ZM167.651 239.13L183.753 239.106L188.072 239.294C185.833 242.704 184.237 246.952 183.295 250.894L176.079 250.891C175.809 250.883 175.53 250.882 175.246 250.881C174.433 250.878 173.587 250.874 172.828 250.712C171.719 246.589 169.84 242.775 167.651 239.13ZM155.42 243.429L155.503 243.396C156.048 243.31 156.42 243.31 156.904 243.553C156.931 243.688 156.944 243.826 156.944 243.965C156.944 244.514 156.753 245.088 156.574 245.627C156.52 245.789 156.468 245.948 156.422 246.102L158.854 246.439C158.92 246.745 158.96 247.112 158.96 247.486C158.96 248.073 158.862 248.677 158.615 249.086C158.088 249.238 157.57 249.183 157.038 249.126C156.946 249.117 156.854 249.107 156.761 249.098C156.491 249.229 156.417 249.514 156.417 249.865C156.417 250.071 156.442 250.298 156.468 250.531C156.495 250.774 156.522 251.022 156.522 251.256C156.522 251.574 156.471 251.866 156.298 252.079L154.491 252.107L153.425 252.071C153.262 251.828 153.213 251.384 153.213 250.896C153.213 250.483 153.248 250.038 153.278 249.658C153.296 249.43 153.312 249.224 153.318 249.063L150.421 248.943C150.417 248.872 150.413 248.797 150.409 248.719C150.395 248.465 150.38 248.18 150.38 247.892C150.38 247.293 150.447 246.681 150.737 246.311L152.666 246.498L152.661 243.475L155.42 243.429ZM201.476 245.097L202.452 245.009C203.047 245.032 203.669 245.459 204.01 245.931C204.194 246.186 204.283 246.472 204.283 246.772C204.283 246.858 204.276 246.944 204.262 247.031C204.157 247.671 203.724 248.156 203.221 248.526L203.09 248.619C204.075 249.37 205.522 249.503 206.59 250.376C207.907 251.453 208.501 253.294 208.586 254.946C208.589 255.004 208.59 255.064 208.59 255.124C208.59 256.5 207.818 258.317 206.875 259.291C206.121 260.07 204.887 260.026 203.888 260.081L198.518 260.102C198.087 259.713 197.642 259.315 197.292 258.848C196.366 257.614 195.911 256.189 195.911 254.703C195.911 254.225 195.958 253.74 196.052 253.253C196.34 251.759 198.15 249.801 199.486 249.07C199.944 248.82 200.413 248.731 200.857 248.434C200.492 247.716 200.344 247.347 200.344 246.699C200.344 246.553 200.352 246.392 200.366 246.209C200.692 245.608 200.88 245.435 201.476 245.097ZM173.757 251.392L182.804 251.333C183.471 251.367 183.866 251.472 184.33 251.955L184.101 252.262L182.771 252.361L175.389 252.48C175.139 252.48 174.874 252.488 174.6 252.496C173.736 252.521 172.797 252.548 172.039 252.34L171.88 251.955C172.428 251.433 173.032 251.461 173.757 251.392ZM154.266 252.851L154.865 252.828C156.276 252.833 157.191 252.952 158.151 254.066C158.485 254.453 158.587 254.679 158.587 255.044C158.587 255.168 158.575 255.309 158.556 255.477L165.062 256.337L162.792 261.596C162.084 263.064 161.295 264.423 160.837 265.999L155.603 266.04L149.396 266.104L144.484 256.328L148.496 255.761C148.922 255.697 149.706 255.69 150.083 255.531C150.168 255.495 150.526 255.008 150.592 254.93C150.972 254.483 151.695 253.391 152.19 253.154C152.699 252.911 153.69 252.918 154.266 252.851ZM171.491 253.068C172.774 252.992 174.034 253.026 175.299 253.059L175.3 253.059C176.068 253.079 176.837 253.1 177.614 253.096L182.157 252.963C182.272 252.959 182.39 252.954 182.508 252.949C183.373 252.912 184.302 252.873 185.028 253.332L185.028 253.929C184.789 254.028 184.627 254.051 184.366 254.057L174.818 254.105C174.663 254.105 174.459 254.112 174.227 254.119L174.227 254.119C173.343 254.149 172.061 254.191 171.59 253.89C171.443 253.795 171.336 253.652 171.208 253.534L171.491 253.068ZM175.732 256.468C175.339 256.417 174.626 256.423 173.826 256.43L173.826 256.43C172.236 256.444 170.302 256.461 169.831 256.034C169.97 255.518 170.03 255.175 170.477 254.834L180.022 254.665C180.404 254.663 180.796 254.652 181.194 254.641C182.571 254.604 184.01 254.565 185.298 254.875C185.494 255.153 185.652 255.44 185.954 255.612C186.133 255.715 186.296 255.801 186.467 255.921L186.438 256.219C185.338 256.592 183.679 256.51 182.229 256.439C181.694 256.413 181.187 256.388 180.747 256.388L175.732 256.468ZM173.012 257.024L181.09 257.1C181.406 257.103 181.745 257.118 182.091 257.133L182.092 257.133C182.929 257.171 183.814 257.21 184.559 257.081L186.897 257.238C187.744 257.786 188.541 258.661 189.004 259.555L188.792 259.926C187.595 260.394 185.817 260.34 184.264 260.293C183.751 260.278 183.262 260.263 182.827 260.268L171.891 260.155C171.594 260.143 171.284 260.139 170.967 260.134C169.856 260.119 168.665 260.102 167.682 259.741L167.537 259.37C167.64 259.061 167.748 258.857 167.978 258.623C168.277 258.318 169.258 257.175 169.6 257.062C170.131 256.887 171.153 256.942 172.019 256.988C172.398 257.008 172.747 257.027 173.012 257.024ZM200.204 260.829C200.443 260.819 200.772 260.795 201.156 260.768C202.886 260.645 205.737 260.443 206.554 261.004L206.612 261.779C206.157 262.187 205.548 262.184 204.936 262.18C204.767 262.179 204.598 262.178 204.432 262.185L197.633 262.223L197.496 261.964C198.391 261.037 198.937 260.947 200.204 260.829ZM170.206 288.007C170.19 287.933 170.174 287.874 170.161 287.824C170.14 287.748 170.125 287.691 170.125 287.633C170.125 287.554 170.153 287.471 170.235 287.333C171.429 285.304 171.725 282.323 172.094 280.017C173.077 273.86 173.574 267.743 174.024 261.529L182.071 261.392C182.261 265.305 183.89 285.3 185.719 287.397L186.441 287.729L186.402 287.962C184.773 288.169 183.042 288.123 181.327 288.077L181.326 288.077C180.336 288.051 179.352 288.024 178.396 288.047C177.83 287.96 177.175 287.983 176.547 288.005L176.546 288.005C176.258 288.016 175.975 288.026 175.709 288.025L170.206 288.007ZM197.847 262.826L204.415 262.831C204.583 262.833 204.766 262.83 204.957 262.828C205.971 262.817 207.235 262.802 208.012 263.264C208.019 263.337 208.026 263.402 208.033 263.462C208.048 263.592 208.06 263.696 208.06 263.794C208.06 263.97 208.021 264.126 207.892 264.374L207.225 264.466L199.857 264.396C199.71 264.393 199.544 264.392 199.365 264.392C198.572 264.39 197.543 264.388 196.986 264.064C196.842 263.981 196.789 263.958 196.763 263.917C196.734 263.869 196.742 263.798 196.692 263.583C197.107 263.069 197.247 263.045 197.847 262.826ZM196.718 265.088C198.318 264.975 199.957 265.001 201.582 265.028L201.583 265.028C202.236 265.039 202.888 265.049 203.534 265.051C203.972 265.052 204.43 265.041 204.898 265.03L204.899 265.03L204.899 265.03C206.421 264.993 208.045 264.954 209.425 265.317C210.514 265.603 210.758 266.377 211.311 267.263L208.459 267.456L197.673 267.432C197.412 267.431 197.092 267.445 196.747 267.46L196.745 267.46L196.744 267.46C195.829 267.5 194.741 267.547 194.111 267.346C193.977 267.303 193.905 267.157 193.802 267.062C193.845 266.67 193.887 266.434 194.118 266.101C194.675 265.298 195.836 265.184 196.718 265.088ZM148.249 267.613L148.336 267.09C149.657 266.503 151.767 266.582 153.542 266.649C154.079 266.669 154.585 266.689 155.029 266.688C155.508 266.687 156.016 266.67 156.537 266.652C158.109 266.6 159.802 266.544 161.191 266.908C161.325 267.134 161.367 267.272 161.367 267.425C161.367 267.515 161.352 267.611 161.334 267.734C161.324 267.798 161.313 267.869 161.303 267.951C160.83 268.309 159.45 268.281 158.487 268.261L158.486 268.261L158.483 268.261C158.224 268.255 157.996 268.25 157.823 268.254L152.071 268.219C151.824 268.217 151.58 268.222 151.337 268.227L151.336 268.227L151.335 268.227C150.237 268.251 149.188 268.273 148.249 267.613ZM196.506 286.158L199.116 268.561L205.689 268.57L207.487 280.408C207.851 282.294 208.174 284.365 208.939 286.13C209.383 286.386 209.803 286.442 210.299 286.523C210.671 286.674 210.54 286.546 210.705 286.895L210.237 287.143C207.593 286.979 204.934 287.073 202.282 287.166L202.281 287.166C201.491 287.194 200.702 287.222 199.914 287.243C199.659 287.25 199.328 287.274 198.959 287.3C197.769 287.386 196.18 287.5 195.454 287.167C195.291 287.092 195.19 286.924 195.059 286.802L195.223 286.448L196.506 286.158ZM151.544 268.938C152.34 268.95 153.183 268.935 154.047 268.921L154.049 268.921L154.05 268.921C156.453 268.88 159.018 268.836 161.173 269.338C161.319 269.548 161.365 269.702 161.365 269.861C161.365 269.971 161.343 270.083 161.316 270.219C161.3 270.3 161.282 270.389 161.267 270.491C161.155 270.586 161.072 270.732 160.932 270.776C160.69 270.85 160.233 270.832 159.864 270.817L159.863 270.817C159.727 270.812 159.603 270.807 159.506 270.807L155 270.605C154.203 270.592 153.387 270.622 152.568 270.652C151.271 270.699 149.966 270.747 148.716 270.625C148.464 270.601 148.508 270.58 148.227 270.426C148.228 270.394 148.228 270.363 148.228 270.333C148.228 270.286 148.228 270.241 148.227 270.199C148.227 270.16 148.227 270.122 148.227 270.086C148.227 269.765 148.248 269.546 148.467 269.194C149.211 268.942 150.067 268.942 150.882 268.943L150.889 268.943C151.112 268.943 151.331 268.943 151.544 268.938ZM90.7605 270.862C90.7859 270.853 90.8091 270.845 90.8309 270.837C90.9697 270.787 91.0494 270.758 91.2419 270.762C92.1861 270.78 93.4178 271.233 94.3639 271.431L110.808 275.371C111.854 275.673 113.97 276.015 114.643 276.793C112.965 277.449 93.5522 271.93 90.7605 270.862ZM157.448 273.227C157.129 273.222 156.555 273.223 155.83 273.225C152.771 273.234 147.028 273.25 146.395 272.808C146.363 272.605 146.332 272.527 146.332 272.472C146.332 272.464 146.333 272.456 146.334 272.448C146.344 272.396 146.392 272.35 146.511 272.199C147.078 271.477 148.213 271.51 149.055 271.454C151.848 271.266 154.658 271.334 157.455 271.401L157.775 271.409C158.091 271.417 158.428 271.412 158.774 271.407C159.569 271.396 160.405 271.384 161.117 271.521C161.574 271.61 162.075 271.854 162.405 272.185L162.529 272.344L162.372 272.715C161.661 272.934 160.995 273.08 160.255 273.165C159.752 273.059 158.96 273.12 158.266 273.175L158.266 273.175C157.964 273.198 157.681 273.22 157.448 273.227ZM161.52 273.912L162.202 273.958C163.132 274.087 164.231 274.995 164.77 275.72L164.771 275.721C164.979 276.001 165.063 276.113 165.063 276.326C165.063 276.406 165.051 276.501 165.029 276.625C164.333 276.911 163.595 276.911 162.854 276.911C162.707 276.911 162.56 276.911 162.413 276.913L158.213 276.94C156.994 276.942 155.751 276.967 154.498 276.992C150.849 277.064 147.107 277.138 143.604 276.661L144.729 275.231C145.041 274.894 145.658 274.277 146.079 274.113C146.846 273.814 148.181 273.855 149.264 273.889L149.264 273.889L149.267 273.889C149.619 273.9 149.943 273.909 150.213 273.907L161.52 273.912ZM119.724 277.906C120.614 277.612 122.465 278.019 123.842 278.322C124.253 278.412 124.623 278.494 124.911 278.544C128.892 279.24 132.946 279.786 136.877 280.717C133.59 282.465 131.532 285.199 129.721 288.367C126.763 293.538 125.275 300.169 125.275 306.337C125.275 307.67 125.344 308.982 125.483 310.252C125.73 312.503 126.301 314.649 126.879 316.83L126.641 317.239L111.181 315.242C109.466 311.807 108.792 307.829 108.792 303.852C108.792 300.863 109.172 297.875 109.777 295.117C111.104 289.075 114.319 281.373 119.724 277.906ZM145.424 301.563C145.373 301.418 145.348 301.377 145.348 301.339L145.348 301.337C145.349 301.295 145.38 301.253 145.443 301.075L147.201 300.399C147.843 298.987 148.172 297.237 148.526 295.724C149.887 289.925 150.428 283.965 150.795 278.032L159.136 277.984C159.146 282.809 159.943 287.649 160.826 292.382C161.366 295.278 161.783 298.725 163.561 301.129L163.688 300.987C164.055 297.827 166.945 295.827 168.547 293.283C169.408 291.915 169.781 290.645 170.08 289.069L179.718 289.104C180.157 289.103 180.605 289.109 181.057 289.116L181.061 289.116L181.065 289.116C182.416 289.136 183.801 289.157 185.1 288.957L185.858 289.027C186.175 289.562 186.103 290.275 186.236 290.88C186.386 291.569 186.697 292.294 187.013 292.922C187.583 294.053 188.754 295.539 189.634 296.468C190.402 297.278 191.225 297.858 191.917 298.764C192.82 300.299 193.179 301.396 193.179 302.181C193.179 304.146 190.924 304.146 189.322 304.146L180.326 304.146C179.103 304.145 177.818 304.195 176.511 304.246L176.509 304.246L176.508 304.246C173.136 304.377 169.611 304.515 166.585 303.801C166.077 303.464 165.97 303.1 165.766 302.555L165.518 301.892L165.429 301.644C164.49 301.512 163.389 301.571 162.329 301.627C161.785 301.656 161.253 301.685 160.758 301.687L148.394 301.633L145.424 301.563ZM193.638 299.295C192.624 298.744 191.757 297.761 190.96 296.933C190.476 296.432 190.364 296.315 190.295 295.607C191.113 293.332 194.04 292.42 195.059 290.29C195.417 289.539 195.449 288.615 195.526 287.797L209.986 287.799C210.081 289.289 210.183 290.571 211.343 291.629C212.908 293.058 216.104 294.171 216.184 296.69C216.184 296.708 216.185 296.725 216.185 296.742C216.185 297.479 215.715 298.33 215.291 298.897C214.454 299.285 213.522 299.318 212.594 299.352C212.06 299.371 211.527 299.39 211.014 299.476C209.998 299.265 208.666 299.337 207.433 299.403C206.878 299.433 206.343 299.462 205.866 299.464L193.638 299.295Z" clip-rule="evenodd" fill="#0C0C0C" fill-opacity="1.000000" fill-rule="evenodd"/>
	<path id="Vector" d="M119.64 309.6C119.86 309.52 119.89 309.49 120.15 309.47C120.71 309.42 121.42 309.75 121.8 310.15C122.22 310.6 122.34 311.12 122.28 311.73C122.22 312.37 121.82 312.73 121.36 313.12L121.13 313.18C120.55 313.3 120.06 313.2 119.59 312.81C119.07 312.37 118.91 311.72 118.8 311.08C118.94 310.37 119.13 310.1 119.64 309.6Z" fill="#010000" fill-opacity="1.000000" fill-rule="nonzero"/>
	<path id="Vector" d="M113.96 309.23C114.15 309.13 114.17 309.11 114.41 309.07C114.95 308.96 115.72 309.23 116.12 309.6C116.56 310.01 116.75 310.57 116.7 311.17C116.64 311.82 116.34 312.25 115.89 312.68L115.62 312.78C115.13 312.95 114.45 312.9 114.02 312.61C113.61 312.34 113.26 311.83 113.18 311.36C113.05 310.54 113.48 309.85 113.96 309.23Z" fill="#010000" fill-opacity="1.000000" fill-rule="nonzero"/>
</svg>
